<svg width="80" height="81" viewBox="0 0 80 81" fill="none" xmlns="http://www.w3.org/2000/svg">
<path d="M40 0C32.0888 0 24.3552 2.37051 17.7772 6.81176C11.1992 11.253 6.07233 17.5655 3.04483 24.951C0.0173217 32.3366 -0.774798 40.4634 0.76861 48.3038C2.31202 56.1443 6.12166 63.3462 11.7158 68.9988C17.3099 74.6514 24.4372 78.5009 32.1964 80.0605C39.9557 81.62 47.9983 80.8196 55.3074 77.7604C62.6164 74.7013 68.8635 69.5207 73.2588 62.8739C77.654 56.2271 80 48.4126 80 40.4186C80 35.1107 78.9654 29.8549 76.9552 24.951C74.945 20.0472 71.9986 15.5915 68.2843 11.8383C64.5699 8.08511 60.1604 5.1079 55.3074 3.07668C50.4543 1.04546 45.2529 0 40 0ZM52.6125 24.4569H47.4921C43.9963 24.4569 43.329 26.1278 43.329 28.5902V33.8228H51.6552L50.5672 42.0309H43.329V64.3098H34.0455V42.0309H27.3876V33.8228H34.0455V27.7547C34.0455 20.4848 39.0355 16.5273 45.4614 16.5273C48.5366 16.5273 51.8438 16.7618 52.6125 16.8644L52.6125 24.4569Z" fill="#FF4500"/>
</svg>
