<svg width="80" height="81" viewBox="0 0 80 81" fill="none" xmlns="http://www.w3.org/2000/svg">
<path d="M48.8607 23.0657H32.005C29.7718 23.0723 27.6319 23.9731 26.0528 25.5713C24.4737 27.1695 23.5837 29.3352 23.5771 31.5954V48.6547C23.5837 50.9149 24.4737 53.0806 26.0528 54.6788C27.6319 56.277 29.7718 57.1777 32.005 57.1843H48.8607C51.0939 57.1777 53.2337 56.2769 54.8128 54.6787C56.3919 53.0805 57.2819 50.9148 57.2884 48.6547V31.5954C57.2819 29.3352 56.3919 27.1695 54.8128 25.5713C53.2337 23.9731 51.0939 23.0723 48.8607 23.0657H48.8607ZM40.4328 50.3606C38.4325 50.3606 36.4772 49.7603 34.8141 48.6356C33.151 47.5109 31.8547 45.9123 31.0892 44.042C30.3238 42.1717 30.1235 40.1136 30.5138 38.1281C30.904 36.1426 31.8672 34.3188 33.2816 32.8873C34.696 31.4559 36.498 30.481 38.4598 30.0861C40.4216 29.6912 42.455 29.8939 44.303 30.6686C46.151 31.4433 47.7305 32.7552 48.8418 34.4384C49.953 36.1217 50.5462 38.1006 50.5462 40.125C50.5455 42.8395 49.4798 45.4425 47.5833 47.3619C45.6868 49.2813 43.1148 50.3599 40.4328 50.3606ZM51.3889 31.5953C50.8888 31.5953 50.4 31.4453 49.9842 31.1641C49.5685 30.8829 49.2444 30.4832 49.0531 30.0157C48.8617 29.5481 48.8116 29.0336 48.9092 28.5372C49.0067 28.0408 49.2475 27.5849 49.6011 27.227C49.9547 26.8691 50.4053 26.6254 50.8957 26.5267C51.3862 26.428 51.8945 26.4787 52.3565 26.6723C52.8185 26.866 53.2134 27.194 53.4912 27.6148C53.769 28.0356 53.9173 28.5304 53.9173 29.0365C53.9181 29.3727 53.8533 29.7059 53.7265 30.0167C53.5997 30.3275 53.4135 30.6099 53.1786 30.8477C52.9436 31.0855 52.6646 31.274 52.3574 31.4023C52.0503 31.5306 51.7212 31.5962 51.3889 31.5954V31.5953Z" fill="#FF4500"/>
<path d="M40.771 48.0323C44.4947 48.0323 47.5133 44.9772 47.5133 41.2086C47.5133 37.44 44.4947 34.3849 40.771 34.3849C37.0474 34.3849 34.0288 37.44 34.0288 41.2086C34.0288 44.9772 37.0474 48.0323 40.771 48.0323Z" fill="#FF4500"/>
<path d="M40 0C32.0888 0 24.3552 2.37432 17.7772 6.8227C11.1993 11.2711 6.07234 17.5937 3.04483 24.9911C0.0173271 32.3885 -0.7748 40.5284 0.768608 48.3814C2.31202 56.2344 6.12164 63.4479 11.7157 69.1096C17.3098 74.7713 24.4372 78.6269 32.1964 80.189C39.9556 81.7511 47.9983 80.9494 55.3074 77.8853C62.6164 74.8212 68.8635 69.6323 73.2588 62.9748C77.654 56.3174 80 48.4903 80 40.4834C80 35.1671 78.9654 29.9028 76.9552 24.9911C74.945 20.0794 71.9986 15.6166 68.2843 11.8573C64.5699 8.09809 60.1604 5.1161 55.3074 3.08162C50.4543 1.04714 45.2529 -8.0477e-07 40 0ZM60.6594 48.6547C60.6503 51.8189 59.4043 54.8509 57.1935 57.0884C54.9828 59.3258 51.987 60.5869 48.8606 60.5962H32.005C28.8785 60.587 25.8827 59.3259 23.672 57.0884C21.4612 54.8509 20.2152 51.8189 20.206 48.6547V31.5954C20.2152 28.4311 21.4612 25.3991 23.672 23.1617C25.8827 20.9242 28.8785 19.6631 32.005 19.6538H48.8606C51.9871 19.6631 54.9828 20.9242 57.1936 23.1617C59.4043 25.3991 60.6503 28.4311 60.6595 31.5954L60.6594 48.6547Z" fill="#FF4500"/>
</svg>
