<svg width="120" height="42" viewBox="0 0 120 42" fill="none" xmlns="http://www.w3.org/2000/svg">
<path d="M10.0545 3.648C11.6216 3.648 13.0645 3.60146 14.3833 3.50837C15.7021 3.41527 17.0364 3.36873 18.3862 3.36873C24.2819 3.36873 28.7115 4.75733 31.6749 7.53455C34.6383 10.2962 36.12 14.656 36.12 20.6138C36.12 23.8255 35.7011 26.6802 34.8633 29.1782C34.041 31.6606 32.8463 33.7396 31.2793 35.4153C29.7278 37.0909 27.8116 38.3554 25.5309 39.2087C23.2657 40.0465 20.6979 40.4344 17.8276 40.3724C17.3001 40.3568 16.6873 40.3258 15.9891 40.2793C15.2909 40.2482 14.585 40.2095 13.8713 40.1629C13.1731 40.1164 12.4904 40.0776 11.8233 40.0465C11.1561 40.0155 10.5976 40 10.1476 40H1.07127V36.6487L4.79491 35.9505C5.0897 35.904 5.32242 35.7721 5.49309 35.5549C5.67927 35.3377 5.77236 35.0817 5.77236 34.7869V9.04727C5.77236 8.75249 5.68703 8.50424 5.51636 8.30255C5.3457 8.10085 5.12073 7.96897 4.84145 7.90691L1.07127 7.16218V3.648H10.0545ZM14.616 36.2531C15.0039 36.4238 15.5159 36.5479 16.152 36.6255C16.7881 36.703 17.3855 36.7418 17.944 36.7418C19.2783 36.7263 20.473 36.4703 21.528 35.9738C22.5985 35.4773 23.4984 34.6628 24.2276 33.5302C24.9568 32.3821 25.5154 30.8616 25.9033 28.9687C26.2912 27.0604 26.4851 24.7176 26.4851 21.9404C26.4851 17.2238 25.8102 13.5234 24.4604 10.8393C23.1261 8.15515 20.8919 6.81309 17.7578 6.81309C16.9665 6.81309 16.2761 6.87515 15.6865 6.99928C15.1125 7.1234 14.7556 7.19321 14.616 7.20873V36.2531ZM52.183 13.9113V34.9033C52.183 35.2601 52.2761 35.5549 52.4623 35.7876C52.664 36.0048 52.9355 36.1445 53.2769 36.2065L55.7903 36.672V40H40.1743V36.672L42.6878 36.2065C43.0291 36.1445 43.2929 36.0048 43.479 35.7876C43.6807 35.5549 43.7816 35.2601 43.7816 34.9033V19.5665C43.7816 19.2252 43.6963 18.9304 43.5256 18.6822C43.3549 18.4339 43.0989 18.2788 42.7576 18.2167L39.9183 17.6349V14.2138C40.7561 13.9966 41.6483 13.8027 42.5947 13.632C43.5566 13.4613 44.5186 13.3217 45.4805 13.2131C46.458 13.1045 47.4199 13.0269 48.3663 12.9804C49.3283 12.9183 50.2281 12.8873 51.066 12.8873L52.183 13.9113ZM52.1365 5.55637C52.1365 6.84412 51.7253 7.87588 50.903 8.65164C50.0807 9.41188 48.9792 9.792 47.5983 9.792C46.202 9.792 45.0849 9.41188 44.247 8.65164C43.4247 7.87588 43.0136 6.84412 43.0136 5.55637C43.0136 4.29964 43.4247 3.29891 44.247 2.55418C45.0849 1.79394 46.202 1.41382 47.5983 1.41382C48.9792 1.41382 50.0807 1.79394 50.903 2.55418C51.7253 3.29891 52.1365 4.29964 52.1365 5.55637ZM71.4364 16.2851C70.3969 16.2851 69.5358 16.7428 68.8531 17.6582C68.186 18.5581 67.7593 20.1716 67.5731 22.4989H74.9506C74.9661 22.3593 74.9739 22.2041 74.9739 22.0335C74.9739 21.8473 74.9739 21.6456 74.9739 21.4284C74.9739 19.9389 74.6868 18.7132 74.1128 17.7513C73.5542 16.7738 72.6621 16.2851 71.4364 16.2851ZM82.4211 34.2051C81.8005 36.2841 80.4973 37.8744 78.5113 38.976C76.5254 40.0621 74.1438 40.6051 71.3666 40.6051C69.2255 40.6051 67.3637 40.287 65.7811 39.6509C64.1986 39.0148 62.8953 38.1072 61.8713 36.928C60.8473 35.7488 60.0871 34.3137 59.5906 32.6225C59.0941 30.9314 58.8459 29.0463 58.8459 26.9673C58.8459 22.3748 59.994 18.8761 62.2902 16.4713C64.5865 14.0509 67.8291 12.8407 72.0182 12.8407C73.8645 12.8407 75.4626 13.0657 76.8124 13.5156C78.1622 13.9656 79.2638 14.5939 80.1171 15.4007C80.9705 16.192 81.5988 17.1462 82.0022 18.2633C82.4211 19.3648 82.6306 20.5595 82.6306 21.8473C82.6306 22.4368 82.5918 23.0807 82.5142 23.7789C82.4367 24.4616 82.3436 25.0744 82.235 25.6175H67.4568C67.4723 29.0308 67.9455 31.5287 68.8764 33.1113C69.8073 34.6783 71.4907 35.4618 73.9266 35.4618C75.1988 35.4618 76.4323 35.2446 77.627 34.8102C78.8371 34.3758 79.8301 33.7241 80.6059 32.8553L82.4211 34.2051ZM89.1778 32.2036V17.9375L85.5938 17.2858V14.2371L88.5029 13.632C88.9218 13.5544 89.2321 13.4148 89.4338 13.2131C89.651 13.0114 89.8295 12.7166 89.9691 12.3287L92.5524 4.97454H97.2069L97.5095 13.5156H104.794V17.8211H97.6025V30.3185C97.6025 32.0873 97.8663 33.3052 98.3938 33.9724C98.9213 34.6395 99.7048 34.9731 100.744 34.9731C101.365 34.9731 102.024 34.8645 102.723 34.6473C103.436 34.4145 104.103 34.0344 104.724 33.5069L106.353 35.3455C105.562 37.0676 104.328 38.3399 102.653 39.1622C100.993 39.9845 99.092 40.3956 96.9509 40.3956C94.5616 40.3956 92.6687 39.8216 91.2724 38.6735C89.876 37.5253 89.1778 35.3687 89.1778 32.2036ZM118.501 36.0902C118.501 37.3935 118.075 38.433 117.221 39.2087C116.368 39.9845 115.235 40.3724 113.824 40.3724C112.412 40.3724 111.279 39.9845 110.426 39.2087C109.572 38.433 109.146 37.3935 109.146 36.0902C109.146 34.7869 109.572 33.7474 110.426 32.9716C111.279 32.1959 112.412 31.808 113.824 31.808C115.235 31.808 116.368 32.1959 117.221 32.9716C118.075 33.7474 118.501 34.7869 118.501 36.0902Z" fill="#281F1F"/>
<path d="M31.6749 7.53455L31.333 7.89938L31.334 7.90033L31.6749 7.53455ZM34.8633 29.1782L34.3892 29.0192L34.3886 29.021L34.8633 29.1782ZM31.2793 35.4153L30.9141 35.0737L30.9124 35.0756L31.2793 35.4153ZM25.5309 39.2087L25.7044 39.6777L25.7061 39.677L25.5309 39.2087ZM17.8276 40.3724L17.8129 40.8722L17.8168 40.8722L17.8276 40.3724ZM15.9891 40.2793L16.0224 39.7803L16.0113 39.7798L15.9891 40.2793ZM13.8713 40.1629L13.838 40.6618L13.8387 40.6618L13.8713 40.1629ZM11.8233 40.0465L11.8465 39.5471L11.8465 39.5471L11.8233 40.0465ZM1.07127 40H0.571273V40.5H1.07127V40ZM1.07127 36.6487L0.979128 36.1573L0.571273 36.2338V36.6487H1.07127ZM4.79491 35.9505L4.71693 35.4567L4.70983 35.4578L4.70276 35.4591L4.79491 35.9505ZM5.49309 35.5549L5.11346 35.2295L5.10652 35.2376L5.09993 35.246L5.49309 35.5549ZM4.84145 7.90691L4.94995 7.41868L4.93835 7.41639L4.84145 7.90691ZM1.07127 7.16218H0.571273V7.57308L0.974379 7.6527L1.07127 7.16218ZM1.07127 3.648V3.148H0.571273V3.648H1.07127ZM14.616 36.2531H14.116V36.5794L14.4146 36.7107L14.616 36.2531ZM16.152 36.6255L16.0915 37.1218L16.152 36.6255ZM17.944 36.7418L17.944 37.2419L17.9498 37.2418L17.944 36.7418ZM21.528 35.9738L21.3176 35.5202L21.3151 35.5214L21.528 35.9738ZM24.2276 33.5302L24.648 33.8009L24.6497 33.7983L24.2276 33.5302ZM25.9033 28.9687L26.3931 29.0691L26.3933 29.0683L25.9033 28.9687ZM24.4604 10.8393L24.0126 11.0618L24.0137 11.0639L24.4604 10.8393ZM15.6865 6.99928L15.5835 6.50999L15.5809 6.51057L15.6865 6.99928ZM14.616 7.20873L14.5608 6.71179L14.116 6.76121V7.20873H14.616ZM10.0545 4.148C11.6312 4.148 13.0861 4.10118 14.4185 4.00712L14.3481 3.00961C13.0429 3.10174 11.6119 3.148 10.0545 3.148V4.148ZM14.4185 4.00712C15.7253 3.91488 17.0479 3.86873 18.3862 3.86873V2.86873C17.0249 2.86873 15.6788 2.91567 14.3481 3.00961L14.4185 4.00712ZM18.3862 3.86873C24.2118 3.86873 28.4968 5.24134 31.333 7.89937L32.0168 7.16972C28.9263 4.27333 24.3521 2.86873 18.3862 2.86873V3.86873ZM31.334 7.90033C34.1562 10.5304 35.62 14.729 35.62 20.6138H36.62C36.62 14.583 35.1204 10.0621 32.0158 7.16876L31.334 7.90033ZM35.62 20.6138C35.62 23.7828 35.2066 26.5823 34.3892 29.0192L35.3373 29.3372C36.1956 26.7782 36.62 23.8681 36.62 20.6138H35.62ZM34.3886 29.021C33.5859 31.4444 32.4253 33.4578 30.9141 35.0738L31.6445 35.7568C33.2673 34.0214 34.4961 31.8769 35.3379 29.3354L34.3886 29.021ZM30.9124 35.0756C29.4174 36.6902 27.5683 37.9126 25.3557 38.7404L25.7061 39.677C28.0549 38.7982 30.0382 37.4916 31.6462 35.755L30.9124 35.0756ZM25.3575 38.7398C23.1612 39.5521 20.6575 39.9334 17.8384 39.8725L17.8168 40.8722C20.7383 40.9354 23.3702 40.541 25.7044 39.6777L25.3575 38.7398ZM17.8423 39.8726C17.3226 39.8573 16.7162 39.8266 16.0223 39.7804L15.9558 40.7782C16.6583 40.825 17.2776 40.8564 17.8129 40.8721L17.8423 39.8726ZM16.0113 39.7798C15.3166 39.7489 14.6141 39.7103 13.9038 39.664L13.8387 40.6618C14.5558 40.7086 15.2652 40.7476 15.9669 40.7788L16.0113 39.7798ZM13.9045 39.664C13.2032 39.6173 12.5172 39.5783 11.8465 39.5471L11.8 40.546C12.4637 40.5769 13.143 40.6155 13.838 40.6618L13.9045 39.664ZM11.8465 39.5471C11.1749 39.5158 10.608 39.5 10.1476 39.5V40.5C10.5871 40.5 11.1373 40.5152 11.8 40.546L11.8465 39.5471ZM10.1476 39.5H1.07127V40.5H10.1476V39.5ZM1.57127 40V36.6487H0.571273V40H1.57127ZM1.16342 37.1402L4.88705 36.442L4.70276 35.4591L0.979128 36.1573L1.16342 37.1402ZM4.87289 36.4444C5.28138 36.3799 5.63105 36.1886 5.88625 35.8638L5.09993 35.246C5.0138 35.3556 4.89802 35.4281 4.71693 35.4567L4.87289 36.4444ZM5.87272 35.8803C6.13912 35.5695 6.27236 35.1971 6.27236 34.7869H5.27236C5.27236 34.9663 5.21942 35.1059 5.11346 35.2295L5.87272 35.8803ZM6.27236 34.7869V9.04727H5.27236V34.7869H6.27236ZM6.27236 9.04727C6.27236 8.64884 6.15405 8.28211 5.89806 7.97957L5.13467 8.62552C5.22001 8.72638 5.27236 8.85613 5.27236 9.04727H6.27236ZM5.89806 7.97957C5.65084 7.68741 5.32649 7.5025 4.94992 7.41882L4.73299 8.395C4.91497 8.43544 5.04055 8.51429 5.13467 8.62552L5.89806 7.97957ZM4.93835 7.41639L1.16817 6.67166L0.974379 7.6527L4.74456 8.39743L4.93835 7.41639ZM1.57127 7.16218V3.648H0.571273V7.16218H1.57127ZM1.07127 4.148H10.0545V3.148H1.07127V4.148ZM14.4146 36.7107C14.864 36.9085 15.4289 37.041 16.0915 37.1218L16.2125 36.1291C15.6028 36.0548 15.1438 35.9391 14.8174 35.7954L14.4146 36.7107ZM16.0915 37.1218C16.7448 37.2015 17.3625 37.2418 17.944 37.2418V36.2418C17.4084 36.2418 16.8314 36.2046 16.2125 36.1291L16.0915 37.1218ZM17.9498 37.2418C19.3454 37.2256 20.6123 36.9573 21.7409 36.4262L21.3151 35.5214C20.3336 35.9833 19.2112 36.227 17.9382 36.2419L17.9498 37.2418ZM21.7384 36.4274C22.9065 35.8857 23.875 35.0015 24.648 33.8009L23.8072 33.2595C23.1219 34.324 22.2906 35.069 21.3176 35.5202L21.7384 36.4274ZM24.6497 33.7983C25.4221 32.5821 25.9977 30.9985 26.3931 29.0691L25.4135 28.8684C25.0331 30.7247 24.4916 32.182 23.8056 33.2621L24.6497 33.7983ZM26.3933 29.0683C26.7899 27.1166 26.9851 24.7381 26.9851 21.9404H25.9851C25.9851 24.697 25.7924 27.0041 25.4133 28.8691L26.3933 29.0683ZM26.9851 21.9404C26.9851 17.1857 26.3063 13.3971 24.9071 10.6146L24.0137 11.0639C25.3141 13.6497 25.9851 17.2618 25.9851 21.9404H26.9851ZM24.9081 10.6167C24.205 9.20234 23.2521 8.11821 22.0415 7.39102C20.8322 6.66462 19.3971 6.31309 17.7578 6.31309V7.31309C19.2526 7.31309 20.5016 7.63259 21.5265 8.24825C22.5501 8.86312 23.3814 9.79208 24.0126 11.0618L24.9081 10.6167ZM17.7578 6.31309C16.942 6.31309 16.2156 6.37693 15.5835 6.51L15.7896 7.48855C16.3366 7.37337 16.9911 7.31309 17.7578 7.31309V6.31309ZM15.5809 6.51057C14.9967 6.63688 14.669 6.69976 14.5608 6.71179L14.6712 7.70567C14.8422 7.68667 15.2283 7.60992 15.7922 7.48798L15.5809 6.51057ZM14.116 7.20873V36.2531H15.116V7.20873H14.116ZM52.183 13.9113H52.683V13.6913L52.5209 13.5427L52.183 13.9113ZM52.4623 35.7876L52.0719 36.1L52.0834 36.1144L52.0959 36.1279L52.4623 35.7876ZM53.2769 36.2065L53.3679 35.7149L53.3663 35.7146L53.2769 36.2065ZM55.7903 36.672H56.2903V36.2561L55.8814 36.1804L55.7903 36.672ZM55.7903 40V40.5H56.2903V40H55.7903ZM40.1743 40H39.6743V40.5H40.1743V40ZM40.1743 36.672L40.0833 36.1804L39.6743 36.2561V36.672H40.1743ZM42.6878 36.2065L42.5983 35.7146L42.5967 35.7149L42.6878 36.2065ZM43.479 35.7876L43.1012 35.4602L43.0994 35.4622L43.479 35.7876ZM42.7576 18.2167L42.6572 18.7067L42.6681 18.7087L42.7576 18.2167ZM39.9183 17.6349H39.4183V18.0428L39.8179 18.1247L39.9183 17.6349ZM39.9183 14.2138L39.7928 13.7298L39.4183 13.8269V14.2138H39.9183ZM42.5947 13.632L42.5073 13.1397L42.5059 13.1399L42.5947 13.632ZM45.4805 13.2131L45.4253 12.7161L45.4244 12.7162L45.4805 13.2131ZM48.3663 12.9804L48.3909 13.4798L48.3985 13.4793L48.3663 12.9804ZM51.066 12.8873L51.4038 12.5187L51.2604 12.3873H51.066V12.8873ZM50.903 8.65164L51.2425 9.01879L51.2462 9.01533L50.903 8.65164ZM44.247 8.65164L43.9039 9.0154L43.9111 9.02192L44.247 8.65164ZM44.247 2.55418L44.5827 2.92479L44.583 2.92446L44.247 2.55418ZM50.903 2.55418L50.5636 2.92134L50.5674 2.92479L50.903 2.55418ZM51.683 13.9113V34.9033H52.683V13.9113H51.683ZM51.683 34.9033C51.683 35.3504 51.8015 35.762 52.0719 36.1L52.8528 35.4753C52.7508 35.3478 52.683 35.1698 52.683 34.9033H51.683ZM52.0959 36.1279C52.3831 36.4372 52.7586 36.6205 53.1874 36.6985L53.3663 35.7146C53.1125 35.6685 52.9449 35.5725 52.8287 35.4474L52.0959 36.1279ZM53.1858 36.6982L55.6993 37.1636L55.8814 36.1804L53.3679 35.7149L53.1858 36.6982ZM55.2903 36.672V40H56.2903V36.672H55.2903ZM55.7903 39.5H40.1743V40.5H55.7903V39.5ZM40.6743 40V36.672H39.6743V40H40.6743ZM40.2654 37.1636L42.7788 36.6982L42.5967 35.7149L40.0833 36.1804L40.2654 37.1636ZM42.7772 36.6985C43.2067 36.6204 43.5828 36.4349 43.8587 36.113L43.0994 35.4622C43.0029 35.5748 42.8516 35.6686 42.5983 35.7146L42.7772 36.6985ZM43.8569 36.1151C44.1497 35.7773 44.2816 35.3602 44.2816 34.9033H43.2816C43.2816 35.1601 43.2118 35.3326 43.1012 35.4602L43.8569 36.1151ZM44.2816 34.9033V19.5665H43.2816V34.9033H44.2816ZM44.2816 19.5665C44.2816 19.138 44.173 18.7413 43.9376 18.3989L43.1136 18.9654C43.2195 19.1195 43.2816 19.3124 43.2816 19.5665H44.2816ZM43.9376 18.3989C43.6799 18.0241 43.2978 17.8068 42.847 17.7248L42.6681 18.7087C42.9 18.7508 43.0299 18.8438 43.1136 18.9654L43.9376 18.3989ZM42.858 17.7269L40.0187 17.1451L39.8179 18.1247L42.6572 18.7065L42.858 17.7269ZM40.4183 17.6349V14.2138H39.4183V17.6349H40.4183ZM40.0438 14.6978C40.8682 14.4841 41.748 14.2927 42.6834 14.1241L42.5059 13.1399C41.5485 13.3126 40.644 13.5091 39.7928 13.7298L40.0438 14.6978ZM42.682 14.1243C43.6337 13.9555 44.5852 13.8173 45.5366 13.7099L45.4244 12.7162C44.4519 12.826 43.4795 12.9672 42.5073 13.1397L42.682 14.1243ZM45.5357 13.71C46.5034 13.6025 47.4551 13.5258 48.3909 13.4798L48.3418 12.481C47.3847 12.528 46.4125 12.6065 45.4253 12.7161L45.5357 13.71ZM48.3985 13.4793C49.3513 13.4179 50.2403 13.3873 51.066 13.3873V12.3873C50.2159 12.3873 49.3052 12.4188 48.3341 12.4814L48.3985 13.4793ZM50.7281 13.2559L51.8452 14.2799L52.5209 13.5427L51.4038 12.5187L50.7281 13.2559ZM51.6365 5.55637C51.6365 6.72748 51.2678 7.62017 50.5599 8.28794L51.2462 9.01533C52.1829 8.13159 52.6365 6.96076 52.6365 5.55637H51.6365ZM50.5636 8.2845C49.854 8.94052 48.8841 9.292 47.5983 9.292V10.292C49.0743 10.292 50.3074 9.88324 51.2425 9.01877L50.5636 8.2845ZM47.5983 9.292C46.2958 9.292 45.3086 8.93972 44.583 8.28136L43.9111 9.02192C44.8611 9.88404 46.1082 10.292 47.5983 10.292V9.292ZM44.5902 8.28794C43.8823 7.62017 43.5136 6.72748 43.5136 5.55637H42.5136C42.5136 6.96076 42.9672 8.13159 43.9039 9.01533L44.5902 8.28794ZM43.5136 5.55637C43.5136 4.42008 43.8795 3.56164 44.5827 2.92479L43.9114 2.18358C42.97 3.03618 42.5136 4.17919 42.5136 5.55637H43.5136ZM44.583 2.92446C45.3086 2.2661 46.2958 1.91382 47.5983 1.91382V0.913818C46.1082 0.913818 44.8611 1.32178 43.9111 2.1839L44.583 2.92446ZM47.5983 1.91382C48.8841 1.91382 49.854 2.2653 50.5636 2.92132L51.2425 2.18705C50.3074 1.32258 49.0743 0.913818 47.5983 0.913818V1.91382ZM50.5674 2.92479C51.2706 3.56164 51.6365 4.42008 51.6365 5.55637H52.6365C52.6365 4.17919 52.1801 3.03618 51.2387 2.18358L50.5674 2.92479ZM68.8531 17.6582L68.4523 17.3593L68.4515 17.3604L68.8531 17.6582ZM67.5731 22.4989L67.0747 22.459L67.0315 22.9989H67.5731V22.4989ZM74.9506 22.4989V22.9989H75.3981L75.4475 22.5541L74.9506 22.4989ZM74.1128 17.7513L73.6786 17.9994L73.6834 18.0075L74.1128 17.7513ZM82.4211 34.2051L82.9002 34.3481L83.0004 34.0127L82.7195 33.8039L82.4211 34.2051ZM78.5113 38.976L78.7512 39.4147L78.7538 39.4132L78.5113 38.976ZM65.7811 39.6509L65.9676 39.187L65.9676 39.187L65.7811 39.6509ZM61.8713 36.928L61.4938 37.2558L61.4938 37.2558L61.8713 36.928ZM59.5906 32.6225L60.0703 32.4817L60.0703 32.4817L59.5906 32.6225ZM62.2902 16.4713L62.6519 16.8166L62.653 16.8154L62.2902 16.4713ZM76.8124 13.5156L76.9705 13.0413L76.9705 13.0413L76.8124 13.5156ZM80.1171 15.4007L79.7736 15.7641L79.7772 15.7674L80.1171 15.4007ZM82.0022 18.2633L81.5319 18.4331L81.5349 18.441L82.0022 18.2633ZM82.5142 23.7789L83.011 23.8354L83.0112 23.8341L82.5142 23.7789ZM82.235 25.6175V26.1175H82.6449L82.7252 25.7155L82.235 25.6175ZM67.4568 25.6175V25.1175H66.9545L66.9568 25.6197L67.4568 25.6175ZM68.8764 33.1113L68.4454 33.3648L68.4465 33.3666L68.8764 33.1113ZM77.627 34.8102L77.458 34.3396L77.4561 34.3403L77.627 34.8102ZM80.6059 32.8553L80.9042 32.454L80.5374 32.1813L80.2329 32.5223L80.6059 32.8553ZM71.4364 15.7851C70.2219 15.7851 69.2186 16.3317 68.4523 17.3593L69.2539 17.9571C69.853 17.1538 70.5719 16.7851 71.4364 16.7851V15.7851ZM68.4515 17.3604C67.6944 18.3815 67.2619 20.1199 67.0747 22.459L68.0715 22.5388C68.2568 20.2234 68.6775 18.7346 69.2548 17.956L68.4515 17.3604ZM67.5731 22.9989H74.9506V21.9989H67.5731V22.9989ZM75.4475 22.5541C75.4655 22.3928 75.4739 22.2188 75.4739 22.0335H74.4739C74.4739 22.1894 74.4667 22.3258 74.4536 22.4437L75.4475 22.5541ZM75.4739 22.0335C75.4739 22.0331 75.4739 22.0327 75.4739 22.0324C75.4739 22.032 75.4739 22.0316 75.4739 22.0313C75.4739 22.0309 75.4739 22.0305 75.4739 22.0302C75.4739 22.0298 75.4739 22.0295 75.4739 22.0291C75.4739 22.0287 75.4739 22.0284 75.4739 22.028C75.4739 22.0276 75.4739 22.0273 75.4739 22.0269C75.4739 22.0265 75.4739 22.0262 75.4739 22.0258C75.4739 22.0254 75.4739 22.0251 75.4739 22.0247C75.4739 22.0244 75.4739 22.024 75.4739 22.0236C75.4739 22.0233 75.4739 22.0229 75.4739 22.0225C75.4739 22.0222 75.4739 22.0218 75.4739 22.0214C75.4739 22.0211 75.4739 22.0207 75.4739 22.0203C75.4739 22.02 75.4739 22.0196 75.4739 22.0192C75.4739 22.0189 75.4739 22.0185 75.4739 22.0181C75.4739 22.0178 75.4739 22.0174 75.4739 22.0171C75.4739 22.0167 75.4739 22.0163 75.4739 22.016C75.4739 22.0156 75.4739 22.0152 75.4739 22.0149C75.4739 22.0145 75.4739 22.0141 75.4739 22.0138C75.4739 22.0134 75.4739 22.013 75.4739 22.0127C75.4739 22.0123 75.4739 22.0119 75.4739 22.0116C75.4739 22.0112 75.4739 22.0108 75.4739 22.0105C75.4739 22.0101 75.4739 22.0097 75.4739 22.0094C75.4739 22.009 75.4739 22.0086 75.4739 22.0083C75.4739 22.0079 75.4739 22.0075 75.4739 22.0072C75.4739 22.0068 75.4739 22.0064 75.4739 22.0061C75.4739 22.0057 75.4739 22.0053 75.4739 22.005C75.4739 22.0046 75.4739 22.0042 75.4739 22.0039C75.4739 22.0035 75.4739 22.0031 75.4739 22.0028C75.4739 22.0024 75.4739 22.002 75.4739 22.0017C75.4739 22.0013 75.4739 22.0009 75.4739 22.0006C75.4739 22.0002 75.4739 21.9998 75.4739 21.9995C75.4739 21.9991 75.4739 21.9987 75.4739 21.9984C75.4739 21.998 75.4739 21.9976 75.4739 21.9973C75.4739 21.9969 75.4739 21.9965 75.4739 21.9962C75.4739 21.9958 75.4739 21.9954 75.4739 21.9951C75.4739 21.9947 75.4739 21.9943 75.4739 21.994C75.4739 21.9936 75.4739 21.9932 75.4739 21.9928C75.4739 21.9925 75.4739 21.9921 75.4739 21.9917C75.4739 21.9914 75.4739 21.991 75.4739 21.9906C75.4739 21.9903 75.4739 21.9899 75.4739 21.9895C75.4739 21.9892 75.4739 21.9888 75.4739 21.9884C75.4739 21.9881 75.4739 21.9877 75.4739 21.9873C75.4739 21.987 75.4739 21.9866 75.4739 21.9862C75.4739 21.9858 75.4739 21.9855 75.4739 21.9851C75.4739 21.9847 75.4739 21.9844 75.4739 21.984C75.4739 21.9836 75.4739 21.9833 75.4739 21.9829C75.4739 21.9825 75.4739 21.9822 75.4739 21.9818C75.4739 21.9814 75.4739 21.9811 75.4739 21.9807C75.4739 21.9803 75.4739 21.9799 75.4739 21.9796C75.4739 21.9792 75.4739 21.9788 75.4739 21.9785C75.4739 21.9781 75.4739 21.9777 75.4739 21.9774C75.4739 21.977 75.4739 21.9766 75.4739 21.9762C75.4739 21.9759 75.4739 21.9755 75.4739 21.9751C75.4739 21.9748 75.4739 21.9744 75.4739 21.974C75.4739 21.9737 75.4739 21.9733 75.4739 21.9729C75.4739 21.9725 75.4739 21.9722 75.4739 21.9718C75.4739 21.9714 75.4739 21.9711 75.4739 21.9707C75.4739 21.9703 75.4739 21.97 75.4739 21.9696C75.4739 21.9692 75.4739 21.9688 75.4739 21.9685C75.4739 21.9681 75.4739 21.9677 75.4739 21.9674C75.4739 21.967 75.4739 21.9666 75.4739 21.9662C75.4739 21.9659 75.4739 21.9655 75.4739 21.9651C75.4739 21.9648 75.4739 21.9644 75.4739 21.964C75.4739 21.9637 75.4739 21.9633 75.4739 21.9629C75.4739 21.9625 75.4739 21.9622 75.4739 21.9618C75.4739 21.9614 75.4739 21.9611 75.4739 21.9607C75.4739 21.9603 75.4739 21.9599 75.4739 21.9596C75.4739 21.9592 75.4739 21.9588 75.4739 21.9585C75.4739 21.9581 75.4739 21.9577 75.4739 21.9573C75.4739 21.957 75.4739 21.9566 75.4739 21.9562C75.4739 21.9558 75.4739 21.9555 75.4739 21.9551C75.4739 21.9547 75.4739 21.9544 75.4739 21.954C75.4739 21.9536 75.4739 21.9532 75.4739 21.9529C75.4739 21.9525 75.4739 21.9521 75.4739 21.9518C75.4739 21.9514 75.4739 21.951 75.4739 21.9506C75.4739 21.9503 75.4739 21.9499 75.4739 21.9495C75.4739 21.9491 75.4739 21.9488 75.4739 21.9484C75.4739 21.948 75.4739 21.9477 75.4739 21.9473C75.4739 21.9469 75.4739 21.9465 75.4739 21.9462C75.4739 21.9458 75.4739 21.9454 75.4739 21.945C75.4739 21.9447 75.4739 21.9443 75.4739 21.9439C75.4739 21.9436 75.4739 21.9432 75.4739 21.9428C75.4739 21.9424 75.4739 21.9421 75.4739 21.9417C75.4739 21.9413 75.4739 21.9409 75.4739 21.9406C75.4739 21.9402 75.4739 21.9398 75.4739 21.9394C75.4739 21.9391 75.4739 21.9387 75.4739 21.9383C75.4739 21.9379 75.4739 21.9376 75.4739 21.9372C75.4739 21.9368 75.4739 21.9365 75.4739 21.9361C75.4739 21.9357 75.4739 21.9353 75.4739 21.935C75.4739 21.9346 75.4739 21.9342 75.4739 21.9338C75.4739 21.9335 75.4739 21.9331 75.4739 21.9327C75.4739 21.9323 75.4739 21.932 75.4739 21.9316C75.4739 21.9312 75.4739 21.9308 75.4739 21.9305C75.4739 21.9301 75.4739 21.9297 75.4739 21.9293C75.4739 21.929 75.4739 21.9286 75.4739 21.9282C75.4739 21.9278 75.4739 21.9275 75.4739 21.9271C75.4739 21.9267 75.4739 21.9263 75.4739 21.926C75.4739 21.9256 75.4739 21.9252 75.4739 21.9248C75.4739 21.9245 75.4739 21.9241 75.4739 21.9237C75.4739 21.9233 75.4739 21.923 75.4739 21.9226C75.4739 21.9222 75.4739 21.9218 75.4739 21.9215C75.4739 21.9211 75.4739 21.9207 75.4739 21.9203C75.4739 21.92 75.4739 21.9196 75.4739 21.9192C75.4739 21.9188 75.4739 21.9185 75.4739 21.9181C75.4739 21.9177 75.4739 21.9173 75.4739 21.917C75.4739 21.9166 75.4739 21.9162 75.4739 21.9158C75.4739 21.9154 75.4739 21.9151 75.4739 21.9147C75.4739 21.9143 75.4739 21.9139 75.4739 21.9136C75.4739 21.9132 75.4739 21.9128 75.4739 21.9124C75.4739 21.9121 75.4739 21.9117 75.4739 21.9113C75.4739 21.9109 75.4739 21.9106 75.4739 21.9102C75.4739 21.9098 75.4739 21.9094 75.4739 21.909C75.4739 21.9087 75.4739 21.9083 75.4739 21.9079C75.4739 21.9075 75.4739 21.9072 75.4739 21.9068C75.4739 21.9064 75.4739 21.906 75.4739 21.9057C75.4739 21.9053 75.4739 21.9049 75.4739 21.9045C75.4739 21.9041 75.4739 21.9038 75.4739 21.9034C75.4739 21.903 75.4739 21.9026 75.4739 21.9023C75.4739 21.9019 75.4739 21.9015 75.4739 21.9011C75.4739 21.9007 75.4739 21.9004 75.4739 21.9C75.4739 21.8996 75.4739 21.8992 75.4739 21.8989C75.4739 21.8985 75.4739 21.8981 75.4739 21.8977C75.4739 21.8973 75.4739 21.897 75.4739 21.8966C75.4739 21.8962 75.4739 21.8958 75.4739 21.8955C75.4739 21.8951 75.4739 21.8947 75.4739 21.8943C75.4739 21.8939 75.4739 21.8936 75.4739 21.8932C75.4739 21.8928 75.4739 21.8924 75.4739 21.892C75.4739 21.8917 75.4739 21.8913 75.4739 21.8909C75.4739 21.8905 75.4739 21.8902 75.4739 21.8898C75.4739 21.8894 75.4739 21.889 75.4739 21.8886C75.4739 21.8883 75.4739 21.8879 75.4739 21.8875C75.4739 21.8871 75.4739 21.8867 75.4739 21.8864C75.4739 21.886 75.4739 21.8856 75.4739 21.8852C75.4739 21.8848 75.4739 21.8845 75.4739 21.8841C75.4739 21.8837 75.4739 21.8833 75.4739 21.8829C75.4739 21.8826 75.4739 21.8822 75.4739 21.8818C75.4739 21.8814 75.4739 21.881 75.4739 21.8807C75.4739 21.8803 75.4739 21.8799 75.4739 21.8795C75.4739 21.8791 75.4739 21.8788 75.4739 21.8784C75.4739 21.878 75.4739 21.8776 75.4739 21.8772C75.4739 21.8769 75.4739 21.8765 75.4739 21.8761C75.4739 21.8757 75.4739 21.8753 75.4739 21.875C75.4739 21.8746 75.4739 21.8742 75.4739 21.8738C75.4739 21.8734 75.4739 21.8731 75.4739 21.8727C75.4739 21.8723 75.4739 21.8719 75.4739 21.8715C75.4739 21.8712 75.4739 21.8708 75.4739 21.8704C75.4739 21.87 75.4739 21.8696 75.4739 21.8693C75.4739 21.8689 75.4739 21.8685 75.4739 21.8681C75.4739 21.8677 75.4739 21.8673 75.4739 21.867C75.4739 21.8666 75.4739 21.8662 75.4739 21.8658C75.4739 21.8654 75.4739 21.8651 75.4739 21.8647C75.4739 21.8643 75.4739 21.8639 75.4739 21.8635C75.4739 21.8632 75.4739 21.8628 75.4739 21.8624C75.4739 21.862 75.4739 21.8616 75.4739 21.8612C75.4739 21.8609 75.4739 21.8605 75.4739 21.8601C75.4739 21.8597 75.4739 21.8593 75.4739 21.859C75.4739 21.8586 75.4739 21.8582 75.4739 21.8578C75.4739 21.8574 75.4739 21.857 75.4739 21.8567C75.4739 21.8563 75.4739 21.8559 75.4739 21.8555C75.4739 21.8551 75.4739 21.8547 75.4739 21.8544C75.4739 21.854 75.4739 21.8536 75.4739 21.8532C75.4739 21.8528 75.4739 21.8525 75.4739 21.8521C75.4739 21.8517 75.4739 21.8513 75.4739 21.8509C75.4739 21.8505 75.4739 21.8502 75.4739 21.8498C75.4739 21.8494 75.4739 21.849 75.4739 21.8486C75.4739 21.8482 75.4739 21.8479 75.4739 21.8475C75.4739 21.8471 75.4739 21.8467 75.4739 21.8463C75.4739 21.8459 75.4739 21.8456 75.4739 21.8452C75.4739 21.8448 75.4739 21.8444 75.4739 21.844C75.4739 21.8436 75.4739 21.8433 75.4739 21.8429C75.4739 21.8425 75.4739 21.8421 75.4739 21.8417C75.4739 21.8413 75.4739 21.8409 75.4739 21.8406C75.4739 21.8402 75.4739 21.8398 75.4739 21.8394C75.4739 21.839 75.4739 21.8386 75.4739 21.8383C75.4739 21.8379 75.4739 21.8375 75.4739 21.8371C75.4739 21.8367 75.4739 21.8363 75.4739 21.836C75.4739 21.8356 75.4739 21.8352 75.4739 21.8348C75.4739 21.8344 75.4739 21.834 75.4739 21.8336C75.4739 21.8333 75.4739 21.8329 75.4739 21.8325C75.4739 21.8321 75.4739 21.8317 75.4739 21.8313C75.4739 21.831 75.4739 21.8306 75.4739 21.8302C75.4739 21.8298 75.4739 21.8294 75.4739 21.829C75.4739 21.8286 75.4739 21.8283 75.4739 21.8279C75.4739 21.8275 75.4739 21.8271 75.4739 21.8267C75.4739 21.8263 75.4739 21.8259 75.4739 21.8256C75.4739 21.8252 75.4739 21.8248 75.4739 21.8244C75.4739 21.824 75.4739 21.8236 75.4739 21.8232C75.4739 21.8229 75.4739 21.8225 75.4739 21.8221C75.4739 21.8217 75.4739 21.8213 75.4739 21.8209C75.4739 21.8205 75.4739 21.8202 75.4739 21.8198C75.4739 21.8194 75.4739 21.819 75.4739 21.8186C75.4739 21.8182 75.4739 21.8178 75.4739 21.8175C75.4739 21.8171 75.4739 21.8167 75.4739 21.8163C75.4739 21.8159 75.4739 21.8155 75.4739 21.8151C75.4739 21.8147 75.4739 21.8144 75.4739 21.814C75.4739 21.8136 75.4739 21.8132 75.4739 21.8128C75.4739 21.8124 75.4739 21.812 75.4739 21.8117C75.4739 21.8113 75.4739 21.8109 75.4739 21.8105C75.4739 21.8101 75.4739 21.8097 75.4739 21.8093C75.4739 21.8089 75.4739 21.8086 75.4739 21.8082C75.4739 21.8078 75.4739 21.8074 75.4739 21.807C75.4739 21.8066 75.4739 21.8062 75.4739 21.8058C75.4739 21.8055 75.4739 21.8051 75.4739 21.8047C75.4739 21.8043 75.4739 21.8039 75.4739 21.8035C75.4739 21.8031 75.4739 21.8027 75.4739 21.8024C75.4739 21.802 75.4739 21.8016 75.4739 21.8012C75.4739 21.8008 75.4739 21.8004 75.4739 21.8C75.4739 21.7996 75.4739 21.7993 75.4739 21.7989C75.4739 21.7985 75.4739 21.7981 75.4739 21.7977C75.4739 21.7973 75.4739 21.7969 75.4739 21.7965C75.4739 21.7961 75.4739 21.7958 75.4739 21.7954C75.4739 21.795 75.4739 21.7946 75.4739 21.7942C75.4739 21.7938 75.4739 21.7934 75.4739 21.793C75.4739 21.7926 75.4739 21.7923 75.4739 21.7919C75.4739 21.7915 75.4739 21.7911 75.4739 21.7907C75.4739 21.7903 75.4739 21.7899 75.4739 21.7895C75.4739 21.7891 75.4739 21.7888 75.4739 21.7884C75.4739 21.788 75.4739 21.7876 75.4739 21.7872C75.4739 21.7868 75.4739 21.7864 75.4739 21.786C75.4739 21.7856 75.4739 21.7853 75.4739 21.7849C75.4739 21.7845 75.4739 21.7841 75.4739 21.7837C75.4739 21.7833 75.4739 21.7829 75.4739 21.7825C75.4739 21.7821 75.4739 21.7817 75.4739 21.7814C75.4739 21.781 75.4739 21.7806 75.4739 21.7802C75.4739 21.7798 75.4739 21.7794 75.4739 21.779C75.4739 21.7786 75.4739 21.7782 75.4739 21.7778C75.4739 21.7775 75.4739 21.7771 75.4739 21.7767C75.4739 21.7763 75.4739 21.7759 75.4739 21.7755C75.4739 21.7751 75.4739 21.7747 75.4739 21.7743C75.4739 21.7739 75.4739 21.7735 75.4739 21.7732C75.4739 21.7728 75.4739 21.7724 75.4739 21.772C75.4739 21.7716 75.4739 21.7712 75.4739 21.7708C75.4739 21.7704 75.4739 21.77 75.4739 21.7696C75.4739 21.7692 75.4739 21.7689 75.4739 21.7685C75.4739 21.7681 75.4739 21.7677 75.4739 21.7673C75.4739 21.7669 75.4739 21.7665 75.4739 21.7661C75.4739 21.7657 75.4739 21.7653 75.4739 21.7649C75.4739 21.7645 75.4739 21.7642 75.4739 21.7638C75.4739 21.7634 75.4739 21.763 75.4739 21.7626C75.4739 21.7622 75.4739 21.7618 75.4739 21.7614C75.4739 21.761 75.4739 21.7606 75.4739 21.7602C75.4739 21.7598 75.4739 21.7594 75.4739 21.7591C75.4739 21.7587 75.4739 21.7583 75.4739 21.7579C75.4739 21.7575 75.4739 21.7571 75.4739 21.7567C75.4739 21.7563 75.4739 21.7559 75.4739 21.7555C75.4739 21.7551 75.4739 21.7547 75.4739 21.7543C75.4739 21.754 75.4739 21.7536 75.4739 21.7532C75.4739 21.7528 75.4739 21.7524 75.4739 21.752C75.4739 21.7516 75.4739 21.7512 75.4739 21.7508C75.4739 21.7504 75.4739 21.75 75.4739 21.7496C75.4739 21.7492 75.4739 21.7488 75.4739 21.7485C75.4739 21.7481 75.4739 21.7477 75.4739 21.7473C75.4739 21.7469 75.4739 21.7465 75.4739 21.7461C75.4739 21.7457 75.4739 21.7453 75.4739 21.7449C75.4739 21.7445 75.4739 21.7441 75.4739 21.7437C75.4739 21.7433 75.4739 21.7429 75.4739 21.7425C75.4739 21.7422 75.4739 21.7418 75.4739 21.7414C75.4739 21.741 75.4739 21.7406 75.4739 21.7402C75.4739 21.7398 75.4739 21.7394 75.4739 21.739C75.4739 21.7386 75.4739 21.7382 75.4739 21.7378C75.4739 21.7374 75.4739 21.737 75.4739 21.7366C75.4739 21.7362 75.4739 21.7358 75.4739 21.7354C75.4739 21.7351 75.4739 21.7347 75.4739 21.7343C75.4739 21.7339 75.4739 21.7335 75.4739 21.7331C75.4739 21.7327 75.4739 21.7323 75.4739 21.7319C75.4739 21.7315 75.4739 21.7311 75.4739 21.7307C75.4739 21.7303 75.4739 21.7299 75.4739 21.7295C75.4739 21.7291 75.4739 21.7287 75.4739 21.7283C75.4739 21.7279 75.4739 21.7275 75.4739 21.7272C75.4739 21.7268 75.4739 21.7264 75.4739 21.726C75.4739 21.7256 75.4739 21.7252 75.4739 21.7248C75.4739 21.7244 75.4739 21.724 75.4739 21.7236C75.4739 21.7232 75.4739 21.7228 75.4739 21.7224C75.4739 21.722 75.4739 21.7216 75.4739 21.7212C75.4739 21.7208 75.4739 21.7204 75.4739 21.72C75.4739 21.7196 75.4739 21.7192 75.4739 21.7188C75.4739 21.7184 75.4739 21.718 75.4739 21.7176C75.4739 21.7173 75.4739 21.7169 75.4739 21.7165C75.4739 21.7161 75.4739 21.7157 75.4739 21.7153C75.4739 21.7149 75.4739 21.7145 75.4739 21.7141C75.4739 21.7137 75.4739 21.7133 75.4739 21.7129C75.4739 21.7125 75.4739 21.7121 75.4739 21.7117C75.4739 21.7113 75.4739 21.7109 75.4739 21.7105C75.4739 21.7101 75.4739 21.7097 75.4739 21.7093C75.4739 21.7089 75.4739 21.7085 75.4739 21.7081C75.4739 21.7077 75.4739 21.7073 75.4739 21.7069C75.4739 21.7065 75.4739 21.7061 75.4739 21.7057C75.4739 21.7053 75.4739 21.7049 75.4739 21.7045C75.4739 21.7041 75.4739 21.7038 75.4739 21.7034C75.4739 21.703 75.4739 21.7026 75.4739 21.7022C75.4739 21.7018 75.4739 21.7014 75.4739 21.701C75.4739 21.7006 75.4739 21.7002 75.4739 21.6998C75.4739 21.6994 75.4739 21.699 75.4739 21.6986C75.4739 21.6982 75.4739 21.6978 75.4739 21.6974C75.4739 21.697 75.4739 21.6966 75.4739 21.6962C75.4739 21.6958 75.4739 21.6954 75.4739 21.695C75.4739 21.6946 75.4739 21.6942 75.4739 21.6938C75.4739 21.6934 75.4739 21.693 75.4739 21.6926C75.4739 21.6922 75.4739 21.6918 75.4739 21.6914C75.4739 21.691 75.4739 21.6906 75.4739 21.6902C75.4739 21.6898 75.4739 21.6894 75.4739 21.689C75.4739 21.6886 75.4739 21.6882 75.4739 21.6878C75.4739 21.6874 75.4739 21.687 75.4739 21.6866C75.4739 21.6862 75.4739 21.6858 75.4739 21.6854C75.4739 21.685 75.4739 21.6846 75.4739 21.6842C75.4739 21.6838 75.4739 21.6834 75.4739 21.683C75.4739 21.6826 75.4739 21.6822 75.4739 21.6818C75.4739 21.6814 75.4739 21.681 75.4739 21.6806C75.4739 21.6802 75.4739 21.6798 75.4739 21.6794C75.4739 21.679 75.4739 21.6786 75.4739 21.6782C75.4739 21.6778 75.4739 21.6774 75.4739 21.677C75.4739 21.6766 75.4739 21.6762 75.4739 21.6758C75.4739 21.6754 75.4739 21.675 75.4739 21.6746C75.4739 21.6742 75.4739 21.6738 75.4739 21.6734C75.4739 21.673 75.4739 21.6726 75.4739 21.6722C75.4739 21.6718 75.4739 21.6714 75.4739 21.671C75.4739 21.6706 75.4739 21.6702 75.4739 21.6698C75.4739 21.6694 75.4739 21.669 75.4739 21.6686C75.4739 21.6682 75.4739 21.6678 75.4739 21.6674C75.4739 21.667 75.4739 21.6666 75.4739 21.6662C75.4739 21.6658 75.4739 21.6654 75.4739 21.665C75.4739 21.6646 75.4739 21.6642 75.4739 21.6638C75.4739 21.6634 75.4739 21.663 75.4739 21.6626C75.4739 21.6622 75.4739 21.6618 75.4739 21.6614C75.4739 21.661 75.4739 21.6606 75.4739 21.6602C75.4739 21.6598 75.4739 21.6594 75.4739 21.6589C75.4739 21.6585 75.4739 21.6581 75.4739 21.6577C75.4739 21.6573 75.4739 21.6569 75.4739 21.6565C75.4739 21.6561 75.4739 21.6557 75.4739 21.6553C75.4739 21.6549 75.4739 21.6545 75.4739 21.6541C75.4739 21.6537 75.4739 21.6533 75.4739 21.6529C75.4739 21.6525 75.4739 21.6521 75.4739 21.6517C75.4739 21.6513 75.4739 21.6509 75.4739 21.6505C75.4739 21.6501 75.4739 21.6497 75.4739 21.6493C75.4739 21.6489 75.4739 21.6485 75.4739 21.6481C75.4739 21.6477 75.4739 21.6473 75.4739 21.6469C75.4739 21.6465 75.4739 21.6461 75.4739 21.6457C75.4739 21.6453 75.4739 21.6448 75.4739 21.6444C75.4739 21.644 75.4739 21.6436 75.4739 21.6432C75.4739 21.6428 75.4739 21.6424 75.4739 21.642C75.4739 21.6416 75.4739 21.6412 75.4739 21.6408C75.4739 21.6404 75.4739 21.64 75.4739 21.6396C75.4739 21.6392 75.4739 21.6388 75.4739 21.6384C75.4739 21.638 75.4739 21.6376 75.4739 21.6372C75.4739 21.6368 75.4739 21.6364 75.4739 21.636C75.4739 21.6356 75.4739 21.6351 75.4739 21.6347C75.4739 21.6343 75.4739 21.6339 75.4739 21.6335C75.4739 21.6331 75.4739 21.6327 75.4739 21.6323C75.4739 21.6319 75.4739 21.6315 75.4739 21.6311C75.4739 21.6307 75.4739 21.6303 75.4739 21.6299C75.4739 21.6295 75.4739 21.6291 75.4739 21.6287C75.4739 21.6283 75.4739 21.6279 75.4739 21.6275C75.4739 21.627 75.4739 21.6266 75.4739 21.6262C75.4739 21.6258 75.4739 21.6254 75.4739 21.625C75.4739 21.6246 75.4739 21.6242 75.4739 21.6238C75.4739 21.6234 75.4739 21.623 75.4739 21.6226C75.4739 21.6222 75.4739 21.6218 75.4739 21.6214C75.4739 21.621 75.4739 21.6206 75.4739 21.6202C75.4739 21.6197 75.4739 21.6193 75.4739 21.6189C75.4739 21.6185 75.4739 21.6181 75.4739 21.6177C75.4739 21.6173 75.4739 21.6169 75.4739 21.6165C75.4739 21.6161 75.4739 21.6157 75.4739 21.6153C75.4739 21.6149 75.4739 21.6145 75.4739 21.6141C75.4739 21.6137 75.4739 21.6132 75.4739 21.6128C75.4739 21.6124 75.4739 21.612 75.4739 21.6116C75.4739 21.6112 75.4739 21.6108 75.4739 21.6104C75.4739 21.61 75.4739 21.6096 75.4739 21.6092C75.4739 21.6088 75.4739 21.6084 75.4739 21.608C75.4739 21.6075 75.4739 21.6071 75.4739 21.6067C75.4739 21.6063 75.4739 21.6059 75.4739 21.6055C75.4739 21.6051 75.4739 21.6047 75.4739 21.6043C75.4739 21.6039 75.4739 21.6035 75.4739 21.6031C75.4739 21.6027 75.4739 21.6023 75.4739 21.6018C75.4739 21.6014 75.4739 21.601 75.4739 21.6006C75.4739 21.6002 75.4739 21.5998 75.4739 21.5994C75.4739 21.599 75.4739 21.5986 75.4739 21.5982C75.4739 21.5978 75.4739 21.5974 75.4739 21.5969C75.4739 21.5965 75.4739 21.5961 75.4739 21.5957C75.4739 21.5953 75.4739 21.5949 75.4739 21.5945C75.4739 21.5941 75.4739 21.5937 75.4739 21.5933C75.4739 21.5929 75.4739 21.5925 75.4739 21.592C75.4739 21.5916 75.4739 21.5912 75.4739 21.5908C75.4739 21.5904 75.4739 21.59 75.4739 21.5896C75.4739 21.5892 75.4739 21.5888 75.4739 21.5884C75.4739 21.588 75.4739 21.5875 75.4739 21.5871C75.4739 21.5867 75.4739 21.5863 75.4739 21.5859C75.4739 21.5855 75.4739 21.5851 75.4739 21.5847C75.4739 21.5843 75.4739 21.5839 75.4739 21.5835C75.4739 21.583 75.4739 21.5826 75.4739 21.5822C75.4739 21.5818 75.4739 21.5814 75.4739 21.581C75.4739 21.5806 75.4739 21.5802 75.4739 21.5798C75.4739 21.5794 75.4739 21.5789 75.4739 21.5785C75.4739 21.5781 75.4739 21.5777 75.4739 21.5773C75.4739 21.5769 75.4739 21.5765 75.4739 21.5761C75.4739 21.5757 75.4739 21.5753 75.4739 21.5748C75.4739 21.5744 75.4739 21.574 75.4739 21.5736C75.4739 21.5732 75.4739 21.5728 75.4739 21.5724C75.4739 21.572 75.4739 21.5716 75.4739 21.5711C75.4739 21.5707 75.4739 21.5703 75.4739 21.5699C75.4739 21.5695 75.4739 21.5691 75.4739 21.5687C75.4739 21.5683 75.4739 21.5679 75.4739 21.5674C75.4739 21.567 75.4739 21.5666 75.4739 21.5662C75.4739 21.5658 75.4739 21.5654 75.4739 21.565C75.4739 21.5646 75.4739 21.5642 75.4739 21.5637C75.4739 21.5633 75.4739 21.5629 75.4739 21.5625C75.4739 21.5621 75.4739 21.5617 75.4739 21.5613C75.4739 21.5609 75.4739 21.5605 75.4739 21.56C75.4739 21.5596 75.4739 21.5592 75.4739 21.5588C75.4739 21.5584 75.4739 21.558 75.4739 21.5576C75.4739 21.5572 75.4739 21.5567 75.4739 21.5563C75.4739 21.5559 75.4739 21.5555 75.4739 21.5551C75.4739 21.5547 75.4739 21.5543 75.4739 21.5539C75.4739 21.5534 75.4739 21.553 75.4739 21.5526C75.4739 21.5522 75.4739 21.5518 75.4739 21.5514C75.4739 21.551 75.4739 21.5506 75.4739 21.5501C75.4739 21.5497 75.4739 21.5493 75.4739 21.5489C75.4739 21.5485 75.4739 21.5481 75.4739 21.5477C75.4739 21.5473 75.4739 21.5468 75.4739 21.5464C75.4739 21.546 75.4739 21.5456 75.4739 21.5452C75.4739 21.5448 75.4739 21.5444 75.4739 21.544C75.4739 21.5435 75.4739 21.5431 75.4739 21.5427C75.4739 21.5423 75.4739 21.5419 75.4739 21.5415C75.4739 21.5411 75.4739 21.5406 75.4739 21.5402C75.4739 21.5398 75.4739 21.5394 75.4739 21.539C75.4739 21.5386 75.4739 21.5382 75.4739 21.5377C75.4739 21.5373 75.4739 21.5369 75.4739 21.5365C75.4739 21.5361 75.4739 21.5357 75.4739 21.5353C75.4739 21.5348 75.4739 21.5344 75.4739 21.534C75.4739 21.5336 75.4739 21.5332 75.4739 21.5328C75.4739 21.5324 75.4739 21.5319 75.4739 21.5315C75.4739 21.5311 75.4739 21.5307 75.4739 21.5303C75.4739 21.5299 75.4739 21.5295 75.4739 21.529C75.4739 21.5286 75.4739 21.5282 75.4739 21.5278C75.4739 21.5274 75.4739 21.527 75.4739 21.5266C75.4739 21.5261 75.4739 21.5257 75.4739 21.5253C75.4739 21.5249 75.4739 21.5245 75.4739 21.5241C75.4739 21.5237 75.4739 21.5232 75.4739 21.5228C75.4739 21.5224 75.4739 21.522 75.4739 21.5216C75.4739 21.5212 75.4739 21.5207 75.4739 21.5203C75.4739 21.5199 75.4739 21.5195 75.4739 21.5191C75.4739 21.5187 75.4739 21.5182 75.4739 21.5178C75.4739 21.5174 75.4739 21.517 75.4739 21.5166C75.4739 21.5162 75.4739 21.5158 75.4739 21.5153C75.4739 21.5149 75.4739 21.5145 75.4739 21.5141C75.4739 21.5137 75.4739 21.5133 75.4739 21.5128C75.4739 21.5124 75.4739 21.512 75.4739 21.5116C75.4739 21.5112 75.4739 21.5108 75.4739 21.5103C75.4739 21.5099 75.4739 21.5095 75.4739 21.5091C75.4739 21.5087 75.4739 21.5083 75.4739 21.5078C75.4739 21.5074 75.4739 21.507 75.4739 21.5066C75.4739 21.5062 75.4739 21.5058 75.4739 21.5053C75.4739 21.5049 75.4739 21.5045 75.4739 21.5041C75.4739 21.5037 75.4739 21.5033 75.4739 21.5028C75.4739 21.5024 75.4739 21.502 75.4739 21.5016C75.4739 21.5012 75.4739 21.5008 75.4739 21.5003C75.4739 21.4999 75.4739 21.4995 75.4739 21.4991C75.4739 21.4987 75.4739 21.4982 75.4739 21.4978C75.4739 21.4974 75.4739 21.497 75.4739 21.4966C75.4739 21.4962 75.4739 21.4957 75.4739 21.4953C75.4739 21.4949 75.4739 21.4945 75.4739 21.4941C75.4739 21.4936 75.4739 21.4932 75.4739 21.4928C75.4739 21.4924 75.4739 21.492 75.4739 21.4916C75.4739 21.4911 75.4739 21.4907 75.4739 21.4903C75.4739 21.4899 75.4739 21.4895 75.4739 21.489C75.4739 21.4886 75.4739 21.4882 75.4739 21.4878C75.4739 21.4874 75.4739 21.487 75.4739 21.4865C75.4739 21.4861 75.4739 21.4857 75.4739 21.4853C75.4739 21.4849 75.4739 21.4844 75.4739 21.484C75.4739 21.4836 75.4739 21.4832 75.4739 21.4828C75.4739 21.4823 75.4739 21.4819 75.4739 21.4815C75.4739 21.4811 75.4739 21.4807 75.4739 21.4802C75.4739 21.4798 75.4739 21.4794 75.4739 21.479C75.4739 21.4786 75.4739 21.4781 75.4739 21.4777C75.4739 21.4773 75.4739 21.4769 75.4739 21.4765C75.4739 21.4761 75.4739 21.4756 75.4739 21.4752C75.4739 21.4748 75.4739 21.4744 75.4739 21.474C75.4739 21.4735 75.4739 21.4731 75.4739 21.4727C75.4739 21.4723 75.4739 21.4719 75.4739 21.4714C75.4739 21.471 75.4739 21.4706 75.4739 21.4702C75.4739 21.4698 75.4739 21.4693 75.4739 21.4689C75.4739 21.4685 75.4739 21.4681 75.4739 21.4676C75.4739 21.4672 75.4739 21.4668 75.4739 21.4664C75.4739 21.466 75.4739 21.4655 75.4739 21.4651C75.4739 21.4647 75.4739 21.4643 75.4739 21.4639C75.4739 21.4634 75.4739 21.463 75.4739 21.4626C75.4739 21.4622 75.4739 21.4618 75.4739 21.4613C75.4739 21.4609 75.4739 21.4605 75.4739 21.4601C75.4739 21.4596 75.4739 21.4592 75.4739 21.4588C75.4739 21.4584 75.4739 21.458 75.4739 21.4575C75.4739 21.4571 75.4739 21.4567 75.4739 21.4563C75.4739 21.4559 75.4739 21.4554 75.4739 21.455C75.4739 21.4546 75.4739 21.4542 75.4739 21.4537C75.4739 21.4533 75.4739 21.4529 75.4739 21.4525C75.4739 21.4521 75.4739 21.4516 75.4739 21.4512C75.4739 21.4508 75.4739 21.4504 75.4739 21.4499C75.4739 21.4495 75.4739 21.4491 75.4739 21.4487C75.4739 21.4483 75.4739 21.4478 75.4739 21.4474C75.4739 21.447 75.4739 21.4466 75.4739 21.4461C75.4739 21.4457 75.4739 21.4453 75.4739 21.4449C75.4739 21.4445 75.4739 21.444 75.4739 21.4436C75.4739 21.4432 75.4739 21.4428 75.4739 21.4423C75.4739 21.4419 75.4739 21.4415 75.4739 21.4411C75.4739 21.4407 75.4739 21.4402 75.4739 21.4398C75.4739 21.4394 75.4739 21.439 75.4739 21.4385C75.4739 21.4381 75.4739 21.4377 75.4739 21.4373C75.4739 21.4368 75.4739 21.4364 75.4739 21.436C75.4739 21.4356 75.4739 21.4351 75.4739 21.4347C75.4739 21.4343 75.4739 21.4339 75.4739 21.4335C75.4739 21.433 75.4739 21.4326 75.4739 21.4322C75.4739 21.4318 75.4739 21.4313 75.4739 21.4309C75.4739 21.4305 75.4739 21.4301 75.4739 21.4296C75.4739 21.4292 75.4739 21.4288 75.4739 21.4284H74.4739C74.4739 21.4288 74.4739 21.4292 74.4739 21.4296C74.4739 21.4301 74.4739 21.4305 74.4739 21.4309C74.4739 21.4313 74.4739 21.4318 74.4739 21.4322C74.4739 21.4326 74.4739 21.433 74.4739 21.4335C74.4739 21.4339 74.4739 21.4343 74.4739 21.4347C74.4739 21.4351 74.4739 21.4356 74.4739 21.436C74.4739 21.4364 74.4739 21.4368 74.4739 21.4373C74.4739 21.4377 74.4739 21.4381 74.4739 21.4385C74.4739 21.439 74.4739 21.4394 74.4739 21.4398C74.4739 21.4402 74.4739 21.4407 74.4739 21.4411C74.4739 21.4415 74.4739 21.4419 74.4739 21.4423C74.4739 21.4428 74.4739 21.4432 74.4739 21.4436C74.4739 21.444 74.4739 21.4445 74.4739 21.4449C74.4739 21.4453 74.4739 21.4457 74.4739 21.4461C74.4739 21.4466 74.4739 21.447 74.4739 21.4474C74.4739 21.4478 74.4739 21.4483 74.4739 21.4487C74.4739 21.4491 74.4739 21.4495 74.4739 21.4499C74.4739 21.4504 74.4739 21.4508 74.4739 21.4512C74.4739 21.4516 74.4739 21.4521 74.4739 21.4525C74.4739 21.4529 74.4739 21.4533 74.4739 21.4537C74.4739 21.4542 74.4739 21.4546 74.4739 21.455C74.4739 21.4554 74.4739 21.4559 74.4739 21.4563C74.4739 21.4567 74.4739 21.4571 74.4739 21.4575C74.4739 21.458 74.4739 21.4584 74.4739 21.4588C74.4739 21.4592 74.4739 21.4596 74.4739 21.4601C74.4739 21.4605 74.4739 21.4609 74.4739 21.4613C74.4739 21.4618 74.4739 21.4622 74.4739 21.4626C74.4739 21.463 74.4739 21.4634 74.4739 21.4639C74.4739 21.4643 74.4739 21.4647 74.4739 21.4651C74.4739 21.4655 74.4739 21.466 74.4739 21.4664C74.4739 21.4668 74.4739 21.4672 74.4739 21.4676C74.4739 21.4681 74.4739 21.4685 74.4739 21.4689C74.4739 21.4693 74.4739 21.4698 74.4739 21.4702C74.4739 21.4706 74.4739 21.471 74.4739 21.4714C74.4739 21.4719 74.4739 21.4723 74.4739 21.4727C74.4739 21.4731 74.4739 21.4735 74.4739 21.474C74.4739 21.4744 74.4739 21.4748 74.4739 21.4752C74.4739 21.4756 74.4739 21.4761 74.4739 21.4765C74.4739 21.4769 74.4739 21.4773 74.4739 21.4777C74.4739 21.4781 74.4739 21.4786 74.4739 21.479C74.4739 21.4794 74.4739 21.4798 74.4739 21.4802C74.4739 21.4807 74.4739 21.4811 74.4739 21.4815C74.4739 21.4819 74.4739 21.4823 74.4739 21.4828C74.4739 21.4832 74.4739 21.4836 74.4739 21.484C74.4739 21.4844 74.4739 21.4849 74.4739 21.4853C74.4739 21.4857 74.4739 21.4861 74.4739 21.4865C74.4739 21.487 74.4739 21.4874 74.4739 21.4878C74.4739 21.4882 74.4739 21.4886 74.4739 21.489C74.4739 21.4895 74.4739 21.4899 74.4739 21.4903C74.4739 21.4907 74.4739 21.4911 74.4739 21.4916C74.4739 21.492 74.4739 21.4924 74.4739 21.4928C74.4739 21.4932 74.4739 21.4936 74.4739 21.4941C74.4739 21.4945 74.4739 21.4949 74.4739 21.4953C74.4739 21.4957 74.4739 21.4962 74.4739 21.4966C74.4739 21.497 74.4739 21.4974 74.4739 21.4978C74.4739 21.4982 74.4739 21.4987 74.4739 21.4991C74.4739 21.4995 74.4739 21.4999 74.4739 21.5003C74.4739 21.5008 74.4739 21.5012 74.4739 21.5016C74.4739 21.502 74.4739 21.5024 74.4739 21.5028C74.4739 21.5033 74.4739 21.5037 74.4739 21.5041C74.4739 21.5045 74.4739 21.5049 74.4739 21.5053C74.4739 21.5058 74.4739 21.5062 74.4739 21.5066C74.4739 21.507 74.4739 21.5074 74.4739 21.5078C74.4739 21.5083 74.4739 21.5087 74.4739 21.5091C74.4739 21.5095 74.4739 21.5099 74.4739 21.5103C74.4739 21.5108 74.4739 21.5112 74.4739 21.5116C74.4739 21.512 74.4739 21.5124 74.4739 21.5128C74.4739 21.5133 74.4739 21.5137 74.4739 21.5141C74.4739 21.5145 74.4739 21.5149 74.4739 21.5153C74.4739 21.5158 74.4739 21.5162 74.4739 21.5166C74.4739 21.517 74.4739 21.5174 74.4739 21.5178C74.4739 21.5182 74.4739 21.5187 74.4739 21.5191C74.4739 21.5195 74.4739 21.5199 74.4739 21.5203C74.4739 21.5207 74.4739 21.5212 74.4739 21.5216C74.4739 21.522 74.4739 21.5224 74.4739 21.5228C74.4739 21.5232 74.4739 21.5237 74.4739 21.5241C74.4739 21.5245 74.4739 21.5249 74.4739 21.5253C74.4739 21.5257 74.4739 21.5261 74.4739 21.5266C74.4739 21.527 74.4739 21.5274 74.4739 21.5278C74.4739 21.5282 74.4739 21.5286 74.4739 21.529C74.4739 21.5295 74.4739 21.5299 74.4739 21.5303C74.4739 21.5307 74.4739 21.5311 74.4739 21.5315C74.4739 21.5319 74.4739 21.5324 74.4739 21.5328C74.4739 21.5332 74.4739 21.5336 74.4739 21.534C74.4739 21.5344 74.4739 21.5348 74.4739 21.5353C74.4739 21.5357 74.4739 21.5361 74.4739 21.5365C74.4739 21.5369 74.4739 21.5373 74.4739 21.5377C74.4739 21.5382 74.4739 21.5386 74.4739 21.539C74.4739 21.5394 74.4739 21.5398 74.4739 21.5402C74.4739 21.5406 74.4739 21.5411 74.4739 21.5415C74.4739 21.5419 74.4739 21.5423 74.4739 21.5427C74.4739 21.5431 74.4739 21.5435 74.4739 21.544C74.4739 21.5444 74.4739 21.5448 74.4739 21.5452C74.4739 21.5456 74.4739 21.546 74.4739 21.5464C74.4739 21.5468 74.4739 21.5473 74.4739 21.5477C74.4739 21.5481 74.4739 21.5485 74.4739 21.5489C74.4739 21.5493 74.4739 21.5497 74.4739 21.5501C74.4739 21.5506 74.4739 21.551 74.4739 21.5514C74.4739 21.5518 74.4739 21.5522 74.4739 21.5526C74.4739 21.553 74.4739 21.5534 74.4739 21.5539C74.4739 21.5543 74.4739 21.5547 74.4739 21.5551C74.4739 21.5555 74.4739 21.5559 74.4739 21.5563C74.4739 21.5567 74.4739 21.5572 74.4739 21.5576C74.4739 21.558 74.4739 21.5584 74.4739 21.5588C74.4739 21.5592 74.4739 21.5596 74.4739 21.56C74.4739 21.5605 74.4739 21.5609 74.4739 21.5613C74.4739 21.5617 74.4739 21.5621 74.4739 21.5625C74.4739 21.5629 74.4739 21.5633 74.4739 21.5637C74.4739 21.5642 74.4739 21.5646 74.4739 21.565C74.4739 21.5654 74.4739 21.5658 74.4739 21.5662C74.4739 21.5666 74.4739 21.567 74.4739 21.5674C74.4739 21.5679 74.4739 21.5683 74.4739 21.5687C74.4739 21.5691 74.4739 21.5695 74.4739 21.5699C74.4739 21.5703 74.4739 21.5707 74.4739 21.5711C74.4739 21.5716 74.4739 21.572 74.4739 21.5724C74.4739 21.5728 74.4739 21.5732 74.4739 21.5736C74.4739 21.574 74.4739 21.5744 74.4739 21.5748C74.4739 21.5753 74.4739 21.5757 74.4739 21.5761C74.4739 21.5765 74.4739 21.5769 74.4739 21.5773C74.4739 21.5777 74.4739 21.5781 74.4739 21.5785C74.4739 21.5789 74.4739 21.5794 74.4739 21.5798C74.4739 21.5802 74.4739 21.5806 74.4739 21.581C74.4739 21.5814 74.4739 21.5818 74.4739 21.5822C74.4739 21.5826 74.4739 21.583 74.4739 21.5835C74.4739 21.5839 74.4739 21.5843 74.4739 21.5847C74.4739 21.5851 74.4739 21.5855 74.4739 21.5859C74.4739 21.5863 74.4739 21.5867 74.4739 21.5871C74.4739 21.5875 74.4739 21.588 74.4739 21.5884C74.4739 21.5888 74.4739 21.5892 74.4739 21.5896C74.4739 21.59 74.4739 21.5904 74.4739 21.5908C74.4739 21.5912 74.4739 21.5916 74.4739 21.592C74.4739 21.5925 74.4739 21.5929 74.4739 21.5933C74.4739 21.5937 74.4739 21.5941 74.4739 21.5945C74.4739 21.5949 74.4739 21.5953 74.4739 21.5957C74.4739 21.5961 74.4739 21.5965 74.4739 21.5969C74.4739 21.5974 74.4739 21.5978 74.4739 21.5982C74.4739 21.5986 74.4739 21.599 74.4739 21.5994C74.4739 21.5998 74.4739 21.6002 74.4739 21.6006C74.4739 21.601 74.4739 21.6014 74.4739 21.6018C74.4739 21.6023 74.4739 21.6027 74.4739 21.6031C74.4739 21.6035 74.4739 21.6039 74.4739 21.6043C74.4739 21.6047 74.4739 21.6051 74.4739 21.6055C74.4739 21.6059 74.4739 21.6063 74.4739 21.6067C74.4739 21.6071 74.4739 21.6075 74.4739 21.608C74.4739 21.6084 74.4739 21.6088 74.4739 21.6092C74.4739 21.6096 74.4739 21.61 74.4739 21.6104C74.4739 21.6108 74.4739 21.6112 74.4739 21.6116C74.4739 21.612 74.4739 21.6124 74.4739 21.6128C74.4739 21.6132 74.4739 21.6137 74.4739 21.6141C74.4739 21.6145 74.4739 21.6149 74.4739 21.6153C74.4739 21.6157 74.4739 21.6161 74.4739 21.6165C74.4739 21.6169 74.4739 21.6173 74.4739 21.6177C74.4739 21.6181 74.4739 21.6185 74.4739 21.6189C74.4739 21.6193 74.4739 21.6197 74.4739 21.6202C74.4739 21.6206 74.4739 21.621 74.4739 21.6214C74.4739 21.6218 74.4739 21.6222 74.4739 21.6226C74.4739 21.623 74.4739 21.6234 74.4739 21.6238C74.4739 21.6242 74.4739 21.6246 74.4739 21.625C74.4739 21.6254 74.4739 21.6258 74.4739 21.6262C74.4739 21.6266 74.4739 21.627 74.4739 21.6275C74.4739 21.6279 74.4739 21.6283 74.4739 21.6287C74.4739 21.6291 74.4739 21.6295 74.4739 21.6299C74.4739 21.6303 74.4739 21.6307 74.4739 21.6311C74.4739 21.6315 74.4739 21.6319 74.4739 21.6323C74.4739 21.6327 74.4739 21.6331 74.4739 21.6335C74.4739 21.6339 74.4739 21.6343 74.4739 21.6347C74.4739 21.6351 74.4739 21.6356 74.4739 21.636C74.4739 21.6364 74.4739 21.6368 74.4739 21.6372C74.4739 21.6376 74.4739 21.638 74.4739 21.6384C74.4739 21.6388 74.4739 21.6392 74.4739 21.6396C74.4739 21.64 74.4739 21.6404 74.4739 21.6408C74.4739 21.6412 74.4739 21.6416 74.4739 21.642C74.4739 21.6424 74.4739 21.6428 74.4739 21.6432C74.4739 21.6436 74.4739 21.644 74.4739 21.6444C74.4739 21.6448 74.4739 21.6453 74.4739 21.6457C74.4739 21.6461 74.4739 21.6465 74.4739 21.6469C74.4739 21.6473 74.4739 21.6477 74.4739 21.6481C74.4739 21.6485 74.4739 21.6489 74.4739 21.6493C74.4739 21.6497 74.4739 21.6501 74.4739 21.6505C74.4739 21.6509 74.4739 21.6513 74.4739 21.6517C74.4739 21.6521 74.4739 21.6525 74.4739 21.6529C74.4739 21.6533 74.4739 21.6537 74.4739 21.6541C74.4739 21.6545 74.4739 21.6549 74.4739 21.6553C74.4739 21.6557 74.4739 21.6561 74.4739 21.6565C74.4739 21.6569 74.4739 21.6573 74.4739 21.6577C74.4739 21.6581 74.4739 21.6585 74.4739 21.6589C74.4739 21.6594 74.4739 21.6598 74.4739 21.6602C74.4739 21.6606 74.4739 21.661 74.4739 21.6614C74.4739 21.6618 74.4739 21.6622 74.4739 21.6626C74.4739 21.663 74.4739 21.6634 74.4739 21.6638C74.4739 21.6642 74.4739 21.6646 74.4739 21.665C74.4739 21.6654 74.4739 21.6658 74.4739 21.6662C74.4739 21.6666 74.4739 21.667 74.4739 21.6674C74.4739 21.6678 74.4739 21.6682 74.4739 21.6686C74.4739 21.669 74.4739 21.6694 74.4739 21.6698C74.4739 21.6702 74.4739 21.6706 74.4739 21.671C74.4739 21.6714 74.4739 21.6718 74.4739 21.6722C74.4739 21.6726 74.4739 21.673 74.4739 21.6734C74.4739 21.6738 74.4739 21.6742 74.4739 21.6746C74.4739 21.675 74.4739 21.6754 74.4739 21.6758C74.4739 21.6762 74.4739 21.6766 74.4739 21.677C74.4739 21.6774 74.4739 21.6778 74.4739 21.6782C74.4739 21.6786 74.4739 21.679 74.4739 21.6794C74.4739 21.6798 74.4739 21.6802 74.4739 21.6806C74.4739 21.681 74.4739 21.6814 74.4739 21.6818C74.4739 21.6822 74.4739 21.6826 74.4739 21.683C74.4739 21.6834 74.4739 21.6838 74.4739 21.6842C74.4739 21.6846 74.4739 21.685 74.4739 21.6854C74.4739 21.6858 74.4739 21.6862 74.4739 21.6866C74.4739 21.687 74.4739 21.6874 74.4739 21.6878C74.4739 21.6882 74.4739 21.6886 74.4739 21.689C74.4739 21.6894 74.4739 21.6898 74.4739 21.6902C74.4739 21.6906 74.4739 21.691 74.4739 21.6914C74.4739 21.6918 74.4739 21.6922 74.4739 21.6926C74.4739 21.693 74.4739 21.6934 74.4739 21.6938C74.4739 21.6942 74.4739 21.6946 74.4739 21.695C74.4739 21.6954 74.4739 21.6958 74.4739 21.6962C74.4739 21.6966 74.4739 21.697 74.4739 21.6974C74.4739 21.6978 74.4739 21.6982 74.4739 21.6986C74.4739 21.699 74.4739 21.6994 74.4739 21.6998C74.4739 21.7002 74.4739 21.7006 74.4739 21.701C74.4739 21.7014 74.4739 21.7018 74.4739 21.7022C74.4739 21.7026 74.4739 21.703 74.4739 21.7034C74.4739 21.7038 74.4739 21.7041 74.4739 21.7045C74.4739 21.7049 74.4739 21.7053 74.4739 21.7057C74.4739 21.7061 74.4739 21.7065 74.4739 21.7069C74.4739 21.7073 74.4739 21.7077 74.4739 21.7081C74.4739 21.7085 74.4739 21.7089 74.4739 21.7093C74.4739 21.7097 74.4739 21.7101 74.4739 21.7105C74.4739 21.7109 74.4739 21.7113 74.4739 21.7117C74.4739 21.7121 74.4739 21.7125 74.4739 21.7129C74.4739 21.7133 74.4739 21.7137 74.4739 21.7141C74.4739 21.7145 74.4739 21.7149 74.4739 21.7153C74.4739 21.7157 74.4739 21.7161 74.4739 21.7165C74.4739 21.7169 74.4739 21.7173 74.4739 21.7176C74.4739 21.718 74.4739 21.7184 74.4739 21.7188C74.4739 21.7192 74.4739 21.7196 74.4739 21.72C74.4739 21.7204 74.4739 21.7208 74.4739 21.7212C74.4739 21.7216 74.4739 21.722 74.4739 21.7224C74.4739 21.7228 74.4739 21.7232 74.4739 21.7236C74.4739 21.724 74.4739 21.7244 74.4739 21.7248C74.4739 21.7252 74.4739 21.7256 74.4739 21.726C74.4739 21.7264 74.4739 21.7268 74.4739 21.7272C74.4739 21.7275 74.4739 21.7279 74.4739 21.7283C74.4739 21.7287 74.4739 21.7291 74.4739 21.7295C74.4739 21.7299 74.4739 21.7303 74.4739 21.7307C74.4739 21.7311 74.4739 21.7315 74.4739 21.7319C74.4739 21.7323 74.4739 21.7327 74.4739 21.7331C74.4739 21.7335 74.4739 21.7339 74.4739 21.7343C74.4739 21.7347 74.4739 21.7351 74.4739 21.7354C74.4739 21.7358 74.4739 21.7362 74.4739 21.7366C74.4739 21.737 74.4739 21.7374 74.4739 21.7378C74.4739 21.7382 74.4739 21.7386 74.4739 21.739C74.4739 21.7394 74.4739 21.7398 74.4739 21.7402C74.4739 21.7406 74.4739 21.741 74.4739 21.7414C74.4739 21.7418 74.4739 21.7422 74.4739 21.7425C74.4739 21.7429 74.4739 21.7433 74.4739 21.7437C74.4739 21.7441 74.4739 21.7445 74.4739 21.7449C74.4739 21.7453 74.4739 21.7457 74.4739 21.7461C74.4739 21.7465 74.4739 21.7469 74.4739 21.7473C74.4739 21.7477 74.4739 21.7481 74.4739 21.7485C74.4739 21.7488 74.4739 21.7492 74.4739 21.7496C74.4739 21.75 74.4739 21.7504 74.4739 21.7508C74.4739 21.7512 74.4739 21.7516 74.4739 21.752C74.4739 21.7524 74.4739 21.7528 74.4739 21.7532C74.4739 21.7536 74.4739 21.754 74.4739 21.7543C74.4739 21.7547 74.4739 21.7551 74.4739 21.7555C74.4739 21.7559 74.4739 21.7563 74.4739 21.7567C74.4739 21.7571 74.4739 21.7575 74.4739 21.7579C74.4739 21.7583 74.4739 21.7587 74.4739 21.7591C74.4739 21.7594 74.4739 21.7598 74.4739 21.7602C74.4739 21.7606 74.4739 21.761 74.4739 21.7614C74.4739 21.7618 74.4739 21.7622 74.4739 21.7626C74.4739 21.763 74.4739 21.7634 74.4739 21.7638C74.4739 21.7642 74.4739 21.7645 74.4739 21.7649C74.4739 21.7653 74.4739 21.7657 74.4739 21.7661C74.4739 21.7665 74.4739 21.7669 74.4739 21.7673C74.4739 21.7677 74.4739 21.7681 74.4739 21.7685C74.4739 21.7689 74.4739 21.7692 74.4739 21.7696C74.4739 21.77 74.4739 21.7704 74.4739 21.7708C74.4739 21.7712 74.4739 21.7716 74.4739 21.772C74.4739 21.7724 74.4739 21.7728 74.4739 21.7732C74.4739 21.7735 74.4739 21.7739 74.4739 21.7743C74.4739 21.7747 74.4739 21.7751 74.4739 21.7755C74.4739 21.7759 74.4739 21.7763 74.4739 21.7767C74.4739 21.7771 74.4739 21.7775 74.4739 21.7778C74.4739 21.7782 74.4739 21.7786 74.4739 21.779C74.4739 21.7794 74.4739 21.7798 74.4739 21.7802C74.4739 21.7806 74.4739 21.781 74.4739 21.7814C74.4739 21.7817 74.4739 21.7821 74.4739 21.7825C74.4739 21.7829 74.4739 21.7833 74.4739 21.7837C74.4739 21.7841 74.4739 21.7845 74.4739 21.7849C74.4739 21.7853 74.4739 21.7856 74.4739 21.786C74.4739 21.7864 74.4739 21.7868 74.4739 21.7872C74.4739 21.7876 74.4739 21.788 74.4739 21.7884C74.4739 21.7888 74.4739 21.7891 74.4739 21.7895C74.4739 21.7899 74.4739 21.7903 74.4739 21.7907C74.4739 21.7911 74.4739 21.7915 74.4739 21.7919C74.4739 21.7923 74.4739 21.7926 74.4739 21.793C74.4739 21.7934 74.4739 21.7938 74.4739 21.7942C74.4739 21.7946 74.4739 21.795 74.4739 21.7954C74.4739 21.7958 74.4739 21.7961 74.4739 21.7965C74.4739 21.7969 74.4739 21.7973 74.4739 21.7977C74.4739 21.7981 74.4739 21.7985 74.4739 21.7989C74.4739 21.7993 74.4739 21.7996 74.4739 21.8C74.4739 21.8004 74.4739 21.8008 74.4739 21.8012C74.4739 21.8016 74.4739 21.802 74.4739 21.8024C74.4739 21.8027 74.4739 21.8031 74.4739 21.8035C74.4739 21.8039 74.4739 21.8043 74.4739 21.8047C74.4739 21.8051 74.4739 21.8055 74.4739 21.8058C74.4739 21.8062 74.4739 21.8066 74.4739 21.807C74.4739 21.8074 74.4739 21.8078 74.4739 21.8082C74.4739 21.8086 74.4739 21.8089 74.4739 21.8093C74.4739 21.8097 74.4739 21.8101 74.4739 21.8105C74.4739 21.8109 74.4739 21.8113 74.4739 21.8117C74.4739 21.812 74.4739 21.8124 74.4739 21.8128C74.4739 21.8132 74.4739 21.8136 74.4739 21.814C74.4739 21.8144 74.4739 21.8147 74.4739 21.8151C74.4739 21.8155 74.4739 21.8159 74.4739 21.8163C74.4739 21.8167 74.4739 21.8171 74.4739 21.8175C74.4739 21.8178 74.4739 21.8182 74.4739 21.8186C74.4739 21.819 74.4739 21.8194 74.4739 21.8198C74.4739 21.8202 74.4739 21.8205 74.4739 21.8209C74.4739 21.8213 74.4739 21.8217 74.4739 21.8221C74.4739 21.8225 74.4739 21.8229 74.4739 21.8232C74.4739 21.8236 74.4739 21.824 74.4739 21.8244C74.4739 21.8248 74.4739 21.8252 74.4739 21.8256C74.4739 21.8259 74.4739 21.8263 74.4739 21.8267C74.4739 21.8271 74.4739 21.8275 74.4739 21.8279C74.4739 21.8283 74.4739 21.8286 74.4739 21.829C74.4739 21.8294 74.4739 21.8298 74.4739 21.8302C74.4739 21.8306 74.4739 21.831 74.4739 21.8313C74.4739 21.8317 74.4739 21.8321 74.4739 21.8325C74.4739 21.8329 74.4739 21.8333 74.4739 21.8336C74.4739 21.834 74.4739 21.8344 74.4739 21.8348C74.4739 21.8352 74.4739 21.8356 74.4739 21.836C74.4739 21.8363 74.4739 21.8367 74.4739 21.8371C74.4739 21.8375 74.4739 21.8379 74.4739 21.8383C74.4739 21.8386 74.4739 21.839 74.4739 21.8394C74.4739 21.8398 74.4739 21.8402 74.4739 21.8406C74.4739 21.8409 74.4739 21.8413 74.4739 21.8417C74.4739 21.8421 74.4739 21.8425 74.4739 21.8429C74.4739 21.8433 74.4739 21.8436 74.4739 21.844C74.4739 21.8444 74.4739 21.8448 74.4739 21.8452C74.4739 21.8456 74.4739 21.8459 74.4739 21.8463C74.4739 21.8467 74.4739 21.8471 74.4739 21.8475C74.4739 21.8479 74.4739 21.8482 74.4739 21.8486C74.4739 21.849 74.4739 21.8494 74.4739 21.8498C74.4739 21.8502 74.4739 21.8505 74.4739 21.8509C74.4739 21.8513 74.4739 21.8517 74.4739 21.8521C74.4739 21.8525 74.4739 21.8528 74.4739 21.8532C74.4739 21.8536 74.4739 21.854 74.4739 21.8544C74.4739 21.8547 74.4739 21.8551 74.4739 21.8555C74.4739 21.8559 74.4739 21.8563 74.4739 21.8567C74.4739 21.857 74.4739 21.8574 74.4739 21.8578C74.4739 21.8582 74.4739 21.8586 74.4739 21.859C74.4739 21.8593 74.4739 21.8597 74.4739 21.8601C74.4739 21.8605 74.4739 21.8609 74.4739 21.8612C74.4739 21.8616 74.4739 21.862 74.4739 21.8624C74.4739 21.8628 74.4739 21.8632 74.4739 21.8635C74.4739 21.8639 74.4739 21.8643 74.4739 21.8647C74.4739 21.8651 74.4739 21.8654 74.4739 21.8658C74.4739 21.8662 74.4739 21.8666 74.4739 21.867C74.4739 21.8673 74.4739 21.8677 74.4739 21.8681C74.4739 21.8685 74.4739 21.8689 74.4739 21.8693C74.4739 21.8696 74.4739 21.87 74.4739 21.8704C74.4739 21.8708 74.4739 21.8712 74.4739 21.8715C74.4739 21.8719 74.4739 21.8723 74.4739 21.8727C74.4739 21.8731 74.4739 21.8734 74.4739 21.8738C74.4739 21.8742 74.4739 21.8746 74.4739 21.875C74.4739 21.8753 74.4739 21.8757 74.4739 21.8761C74.4739 21.8765 74.4739 21.8769 74.4739 21.8772C74.4739 21.8776 74.4739 21.878 74.4739 21.8784C74.4739 21.8788 74.4739 21.8791 74.4739 21.8795C74.4739 21.8799 74.4739 21.8803 74.4739 21.8807C74.4739 21.881 74.4739 21.8814 74.4739 21.8818C74.4739 21.8822 74.4739 21.8826 74.4739 21.8829C74.4739 21.8833 74.4739 21.8837 74.4739 21.8841C74.4739 21.8845 74.4739 21.8848 74.4739 21.8852C74.4739 21.8856 74.4739 21.886 74.4739 21.8864C74.4739 21.8867 74.4739 21.8871 74.4739 21.8875C74.4739 21.8879 74.4739 21.8883 74.4739 21.8886C74.4739 21.889 74.4739 21.8894 74.4739 21.8898C74.4739 21.8902 74.4739 21.8905 74.4739 21.8909C74.4739 21.8913 74.4739 21.8917 74.4739 21.892C74.4739 21.8924 74.4739 21.8928 74.4739 21.8932C74.4739 21.8936 74.4739 21.8939 74.4739 21.8943C74.4739 21.8947 74.4739 21.8951 74.4739 21.8955C74.4739 21.8958 74.4739 21.8962 74.4739 21.8966C74.4739 21.897 74.4739 21.8973 74.4739 21.8977C74.4739 21.8981 74.4739 21.8985 74.4739 21.8989C74.4739 21.8992 74.4739 21.8996 74.4739 21.9C74.4739 21.9004 74.4739 21.9007 74.4739 21.9011C74.4739 21.9015 74.4739 21.9019 74.4739 21.9023C74.4739 21.9026 74.4739 21.903 74.4739 21.9034C74.4739 21.9038 74.4739 21.9041 74.4739 21.9045C74.4739 21.9049 74.4739 21.9053 74.4739 21.9057C74.4739 21.906 74.4739 21.9064 74.4739 21.9068C74.4739 21.9072 74.4739 21.9075 74.4739 21.9079C74.4739 21.9083 74.4739 21.9087 74.4739 21.909C74.4739 21.9094 74.4739 21.9098 74.4739 21.9102C74.4739 21.9106 74.4739 21.9109 74.4739 21.9113C74.4739 21.9117 74.4739 21.9121 74.4739 21.9124C74.4739 21.9128 74.4739 21.9132 74.4739 21.9136C74.4739 21.9139 74.4739 21.9143 74.4739 21.9147C74.4739 21.9151 74.4739 21.9154 74.4739 21.9158C74.4739 21.9162 74.4739 21.9166 74.4739 21.917C74.4739 21.9173 74.4739 21.9177 74.4739 21.9181C74.4739 21.9185 74.4739 21.9188 74.4739 21.9192C74.4739 21.9196 74.4739 21.92 74.4739 21.9203C74.4739 21.9207 74.4739 21.9211 74.4739 21.9215C74.4739 21.9218 74.4739 21.9222 74.4739 21.9226C74.4739 21.923 74.4739 21.9233 74.4739 21.9237C74.4739 21.9241 74.4739 21.9245 74.4739 21.9248C74.4739 21.9252 74.4739 21.9256 74.4739 21.926C74.4739 21.9263 74.4739 21.9267 74.4739 21.9271C74.4739 21.9275 74.4739 21.9278 74.4739 21.9282C74.4739 21.9286 74.4739 21.929 74.4739 21.9293C74.4739 21.9297 74.4739 21.9301 74.4739 21.9305C74.4739 21.9308 74.4739 21.9312 74.4739 21.9316C74.4739 21.932 74.4739 21.9323 74.4739 21.9327C74.4739 21.9331 74.4739 21.9335 74.4739 21.9338C74.4739 21.9342 74.4739 21.9346 74.4739 21.935C74.4739 21.9353 74.4739 21.9357 74.4739 21.9361C74.4739 21.9365 74.4739 21.9368 74.4739 21.9372C74.4739 21.9376 74.4739 21.9379 74.4739 21.9383C74.4739 21.9387 74.4739 21.9391 74.4739 21.9394C74.4739 21.9398 74.4739 21.9402 74.4739 21.9406C74.4739 21.9409 74.4739 21.9413 74.4739 21.9417C74.4739 21.9421 74.4739 21.9424 74.4739 21.9428C74.4739 21.9432 74.4739 21.9436 74.4739 21.9439C74.4739 21.9443 74.4739 21.9447 74.4739 21.945C74.4739 21.9454 74.4739 21.9458 74.4739 21.9462C74.4739 21.9465 74.4739 21.9469 74.4739 21.9473C74.4739 21.9477 74.4739 21.948 74.4739 21.9484C74.4739 21.9488 74.4739 21.9491 74.4739 21.9495C74.4739 21.9499 74.4739 21.9503 74.4739 21.9506C74.4739 21.951 74.4739 21.9514 74.4739 21.9518C74.4739 21.9521 74.4739 21.9525 74.4739 21.9529C74.4739 21.9532 74.4739 21.9536 74.4739 21.954C74.4739 21.9544 74.4739 21.9547 74.4739 21.9551C74.4739 21.9555 74.4739 21.9558 74.4739 21.9562C74.4739 21.9566 74.4739 21.957 74.4739 21.9573C74.4739 21.9577 74.4739 21.9581 74.4739 21.9585C74.4739 21.9588 74.4739 21.9592 74.4739 21.9596C74.4739 21.9599 74.4739 21.9603 74.4739 21.9607C74.4739 21.9611 74.4739 21.9614 74.4739 21.9618C74.4739 21.9622 74.4739 21.9625 74.4739 21.9629C74.4739 21.9633 74.4739 21.9637 74.4739 21.964C74.4739 21.9644 74.4739 21.9648 74.4739 21.9651C74.4739 21.9655 74.4739 21.9659 74.4739 21.9662C74.4739 21.9666 74.4739 21.967 74.4739 21.9674C74.4739 21.9677 74.4739 21.9681 74.4739 21.9685C74.4739 21.9688 74.4739 21.9692 74.4739 21.9696C74.4739 21.97 74.4739 21.9703 74.4739 21.9707C74.4739 21.9711 74.4739 21.9714 74.4739 21.9718C74.4739 21.9722 74.4739 21.9725 74.4739 21.9729C74.4739 21.9733 74.4739 21.9737 74.4739 21.974C74.4739 21.9744 74.4739 21.9748 74.4739 21.9751C74.4739 21.9755 74.4739 21.9759 74.4739 21.9762C74.4739 21.9766 74.4739 21.977 74.4739 21.9774C74.4739 21.9777 74.4739 21.9781 74.4739 21.9785C74.4739 21.9788 74.4739 21.9792 74.4739 21.9796C74.4739 21.9799 74.4739 21.9803 74.4739 21.9807C74.4739 21.9811 74.4739 21.9814 74.4739 21.9818C74.4739 21.9822 74.4739 21.9825 74.4739 21.9829C74.4739 21.9833 74.4739 21.9836 74.4739 21.984C74.4739 21.9844 74.4739 21.9847 74.4739 21.9851C74.4739 21.9855 74.4739 21.9858 74.4739 21.9862C74.4739 21.9866 74.4739 21.987 74.4739 21.9873C74.4739 21.9877 74.4739 21.9881 74.4739 21.9884C74.4739 21.9888 74.4739 21.9892 74.4739 21.9895C74.4739 21.9899 74.4739 21.9903 74.4739 21.9906C74.4739 21.991 74.4739 21.9914 74.4739 21.9917C74.4739 21.9921 74.4739 21.9925 74.4739 21.9928C74.4739 21.9932 74.4739 21.9936 74.4739 21.994C74.4739 21.9943 74.4739 21.9947 74.4739 21.9951C74.4739 21.9954 74.4739 21.9958 74.4739 21.9962C74.4739 21.9965 74.4739 21.9969 74.4739 21.9973C74.4739 21.9976 74.4739 21.998 74.4739 21.9984C74.4739 21.9987 74.4739 21.9991 74.4739 21.9995C74.4739 21.9998 74.4739 22.0002 74.4739 22.0006C74.4739 22.0009 74.4739 22.0013 74.4739 22.0017C74.4739 22.002 74.4739 22.0024 74.4739 22.0028C74.4739 22.0031 74.4739 22.0035 74.4739 22.0039C74.4739 22.0042 74.4739 22.0046 74.4739 22.005C74.4739 22.0053 74.4739 22.0057 74.4739 22.0061C74.4739 22.0064 74.4739 22.0068 74.4739 22.0072C74.4739 22.0075 74.4739 22.0079 74.4739 22.0083C74.4739 22.0086 74.4739 22.009 74.4739 22.0094C74.4739 22.0097 74.4739 22.0101 74.4739 22.0105C74.4739 22.0108 74.4739 22.0112 74.4739 22.0116C74.4739 22.0119 74.4739 22.0123 74.4739 22.0127C74.4739 22.013 74.4739 22.0134 74.4739 22.0138C74.4739 22.0141 74.4739 22.0145 74.4739 22.0149C74.4739 22.0152 74.4739 22.0156 74.4739 22.016C74.4739 22.0163 74.4739 22.0167 74.4739 22.0171C74.4739 22.0174 74.4739 22.0178 74.4739 22.0181C74.4739 22.0185 74.4739 22.0189 74.4739 22.0192C74.4739 22.0196 74.4739 22.02 74.4739 22.0203C74.4739 22.0207 74.4739 22.0211 74.4739 22.0214C74.4739 22.0218 74.4739 22.0222 74.4739 22.0225C74.4739 22.0229 74.4739 22.0233 74.4739 22.0236C74.4739 22.024 74.4739 22.0244 74.4739 22.0247C74.4739 22.0251 74.4739 22.0254 74.4739 22.0258C74.4739 22.0262 74.4739 22.0265 74.4739 22.0269C74.4739 22.0273 74.4739 22.0276 74.4739 22.028C74.4739 22.0284 74.4739 22.0287 74.4739 22.0291C74.4739 22.0295 74.4739 22.0298 74.4739 22.0302C74.4739 22.0305 74.4739 22.0309 74.4739 22.0313C74.4739 22.0316 74.4739 22.032 74.4739 22.0324C74.4739 22.0327 74.4739 22.0331 74.4739 22.0335H75.4739ZM75.4739 21.4284C75.4739 19.8776 75.1753 18.556 74.5421 17.495L73.6834 18.0075C74.1984 18.8705 74.4739 20.0003 74.4739 21.4284H75.4739ZM74.5469 17.5032C73.8901 16.3538 72.8221 15.7851 71.4364 15.7851V16.7851C72.5021 16.7851 73.2184 17.1938 73.6787 17.9993L74.5469 17.5032ZM81.942 34.0621C81.3607 36.0095 80.1464 37.4973 78.2688 38.5388L78.7538 39.4132C80.8481 38.2516 82.2404 36.5587 82.9002 34.3481L81.942 34.0621ZM78.2714 38.5373C76.374 39.575 74.0788 40.1051 71.3666 40.1051V41.1051C74.2088 41.1051 76.6768 40.5491 78.7512 39.4147L78.2714 38.5373ZM71.3666 40.1051C69.2737 40.1051 67.4779 39.794 65.9676 39.187L65.5947 40.1148C67.2495 40.78 69.1773 41.1051 71.3666 41.1051V40.1051ZM65.9676 39.187C64.4517 38.5777 63.2162 37.7141 62.2488 36.6002L61.4938 37.2558C62.5745 38.5002 63.9455 39.4519 65.5947 40.1148L65.9676 39.187ZM62.2488 36.6002C61.2777 35.4818 60.5492 34.1128 60.0703 32.4817L59.1108 32.7634C59.625 34.5146 60.417 36.0158 61.4938 37.2558L62.2488 36.6002ZM60.0703 32.4817C59.5894 30.8436 59.3459 29.0069 59.3459 26.9673H58.3459C58.3459 29.0857 58.5988 31.0192 59.1108 32.7634L60.0703 32.4817ZM59.3459 26.9673C59.3459 22.4537 60.4736 19.0978 62.6519 16.8166L61.9286 16.126C59.5143 18.6544 58.3459 22.2958 58.3459 26.9673H59.3459ZM62.653 16.8154C64.8319 14.5187 67.929 13.3407 72.0182 13.3407V12.3407C67.7293 12.3407 64.3411 13.5831 61.9275 16.1271L62.653 16.8154ZM72.0182 13.3407C73.8259 13.3407 75.3681 13.5612 76.6543 13.99L76.9705 13.0413C75.5571 12.5702 73.9032 12.3407 72.0182 12.3407V13.3407ZM76.6543 13.99C77.9493 14.4217 78.9833 15.0168 79.7736 15.7641L80.4606 15.0374C79.5443 14.1711 78.3751 13.5095 76.9705 13.0413L76.6543 13.99ZM79.7772 15.7674C80.5707 16.5032 81.1551 17.3895 81.5319 18.4331L82.4725 18.0935C82.0426 16.9029 81.3702 15.8808 80.4571 15.0341L79.7772 15.7674ZM81.5349 18.441C81.9303 19.4808 82.1306 20.6146 82.1306 21.8473H83.1306C83.1306 20.5044 82.912 19.2489 82.4696 18.0855L81.5349 18.441ZM82.1306 21.8473C82.1306 22.4153 82.0932 23.0405 82.0173 23.7237L83.0112 23.8341C83.0904 23.121 83.1306 22.4584 83.1306 21.8473H82.1306ZM82.0174 23.7225C81.9411 24.3943 81.85 24.9929 81.7447 25.5194L82.7252 25.7155C82.8372 25.1559 82.9322 24.5288 83.011 23.8354L82.0174 23.7225ZM82.235 25.1175H67.4568V26.1175H82.235V25.1175ZM66.9568 25.6197C66.9724 29.0573 67.4457 31.6652 68.4454 33.3648L69.3074 32.8578C68.4453 31.3923 67.9722 29.0043 67.9568 25.6152L66.9568 25.6197ZM68.4465 33.3666C69.4972 35.1353 71.3814 35.9618 73.9266 35.9618V34.9618C71.6 34.9618 70.1174 34.2213 69.3063 32.8559L68.4465 33.3666ZM73.9266 35.9618C75.2571 35.9618 76.5483 35.7344 77.7978 35.2801L77.4561 34.3403C76.3162 34.7548 75.1406 34.9618 73.9266 34.9618V35.9618ZM77.7959 35.2808C79.0762 34.8212 80.142 34.1255 80.9788 33.1883L80.2329 32.5223C79.5182 33.3227 78.5981 33.9303 77.458 34.3396L77.7959 35.2808ZM80.3075 33.2565L82.1228 34.6063L82.7195 33.8039L80.9042 32.454L80.3075 33.2565ZM89.1778 17.9375H89.6778V17.5202L89.2673 17.4455L89.1778 17.9375ZM85.5938 17.2858H85.0938V17.7031L85.5044 17.7778L85.5938 17.2858ZM85.5938 14.2371L85.492 13.7476L85.0938 13.8304V14.2371H85.5938ZM88.5029 13.632L88.4118 13.1402L88.4011 13.1425L88.5029 13.632ZM89.4338 13.2131L89.0936 12.8467L89.0868 12.853L89.0803 12.8595L89.4338 13.2131ZM89.9691 12.3287L90.4395 12.4981L90.4408 12.4944L89.9691 12.3287ZM92.5524 4.97454V4.47454H92.198L92.0806 4.80884L92.5524 4.97454ZM97.2069 4.97454L97.7066 4.95684L97.6895 4.47454H97.2069V4.97454ZM97.5095 13.5156L97.0098 13.5333L97.0269 14.0156H97.5095V13.5156ZM104.794 13.5156H105.294V13.0156H104.794V13.5156ZM104.794 17.8211V18.3211H105.294V17.8211H104.794ZM97.6025 17.8211V17.3211H97.1025V17.8211H97.6025ZM98.3938 33.9724L98.786 33.6622L98.786 33.6622L98.3938 33.9724ZM102.723 34.6473L102.871 35.1247L102.878 35.1226L102.723 34.6473ZM104.724 33.5069L105.098 33.1753L104.773 32.8087L104.4 33.1259L104.724 33.5069ZM106.353 35.3455L106.807 35.5542L106.944 35.2579L106.727 35.0139L106.353 35.3455ZM102.653 39.1622L102.432 38.7133L102.431 38.7141L102.653 39.1622ZM91.2724 38.6735L91.5899 38.2872L91.2724 38.6735ZM89.6778 32.2036V17.9375H88.6778V32.2036H89.6778ZM89.2673 17.4455L85.6833 16.7939L85.5044 17.7778L89.0884 18.4294L89.2673 17.4455ZM86.0938 17.2858V14.2371H85.0938V17.2858H86.0938ZM85.6956 14.7266L88.6047 14.1215L88.4011 13.1425L85.492 13.7476L85.6956 14.7266ZM88.594 14.1236C89.066 14.0362 89.4869 13.8672 89.7874 13.5666L89.0803 12.8595C88.9774 12.9624 88.7776 13.0726 88.4119 13.1404L88.594 14.1236ZM89.774 13.5795C90.0681 13.3064 90.2828 12.9334 90.4395 12.4981L89.4986 12.1594C89.3761 12.4998 89.234 12.7164 89.0936 12.8467L89.774 13.5795ZM90.4408 12.4944L93.0241 5.14025L92.0806 4.80884L89.4973 12.163L90.4408 12.4944ZM92.5524 5.47454H97.2069V4.47454H92.5524V5.47454ZM96.7072 4.99224L97.0098 13.5333L98.0091 13.4979L97.7066 4.95684L96.7072 4.99224ZM97.5095 14.0156H104.794V13.0156H97.5095V14.0156ZM104.294 13.5156V17.8211H105.294V13.5156H104.294ZM104.794 17.3211H97.6025V18.3211H104.794V17.3211ZM97.1025 17.8211V30.3185H98.1025V17.8211H97.1025ZM97.1025 30.3185C97.1025 32.0996 97.3606 33.4718 98.0016 34.2825L98.786 33.6622C98.372 33.1387 98.1025 32.075 98.1025 30.3185H97.1025ZM98.0016 34.2825C98.6451 35.0963 99.5896 35.4731 100.744 35.4731V34.4731C99.8201 34.4731 99.1976 34.1828 98.786 33.6622L98.0016 34.2825ZM100.744 35.4731C101.423 35.4731 102.133 35.3543 102.871 35.1247L102.574 34.1698C101.916 34.3747 101.307 34.4731 100.744 34.4731V35.4731ZM102.878 35.1226C103.658 34.8681 104.382 34.4539 105.048 33.8879L104.4 33.1259C103.825 33.6149 103.214 33.961 102.568 34.1719L102.878 35.1226ZM104.35 33.8385L105.979 35.677L106.727 35.0139L105.098 33.1753L104.35 33.8385ZM105.899 35.1367C105.155 36.756 104.003 37.9426 102.432 38.7133L102.873 39.611C104.654 38.7372 105.969 37.3792 106.807 35.5542L105.899 35.1367ZM102.431 38.7141C100.85 39.4973 99.027 39.8956 96.9509 39.8956V40.8956C99.157 40.8956 101.136 40.4717 102.875 39.6102L102.431 38.7141ZM96.9509 39.8956C94.6399 39.8956 92.8716 39.341 91.5899 38.2872L90.9548 39.0597C92.4659 40.3021 94.4833 40.8956 96.9509 40.8956V39.8956ZM91.5899 38.2872C90.372 37.2858 89.6778 35.3263 89.6778 32.2036H88.6778C88.6778 35.4112 89.38 37.7648 90.9548 39.0597L91.5899 38.2872ZM117.221 39.2087L117.558 39.5787L117.558 39.5787L117.221 39.2087ZM110.426 39.2087L110.762 38.8388L110.762 38.8388L110.426 39.2087ZM110.426 32.9716L110.762 33.3416L110.762 33.3416L110.426 32.9716ZM118.001 36.0902C118.001 37.2729 117.62 38.1706 116.885 38.8388L117.558 39.5787C118.529 38.6953 119.001 37.514 119.001 36.0902H118.001ZM116.885 38.8388C116.143 39.5131 115.14 39.8724 113.824 39.8724V40.8724C115.331 40.8724 116.593 40.4559 117.558 39.5787L116.885 38.8388ZM113.824 39.8724C112.507 39.8724 111.504 39.5131 110.762 38.8388L110.089 39.5787C111.054 40.4559 112.317 40.8724 113.824 40.8724V39.8724ZM110.762 38.8388C110.027 38.1706 109.646 37.2729 109.646 36.0902H108.646C108.646 37.514 109.118 38.6953 110.089 39.5787L110.762 38.8388ZM109.646 36.0902C109.646 34.9075 110.027 34.0098 110.762 33.3416L110.089 32.6017C109.118 33.485 108.646 34.6663 108.646 36.0902H109.646ZM110.762 33.3416C111.504 32.6673 112.507 32.308 113.824 32.308V31.308C112.317 31.308 111.054 31.7245 110.089 32.6017L110.762 33.3416ZM113.824 32.308C115.14 32.308 116.143 32.6673 116.885 33.3416L117.558 32.6017C116.593 31.7245 115.331 31.308 113.824 31.308V32.308ZM116.885 33.3416C117.62 34.0098 118.001 34.9075 118.001 36.0902H119.001C119.001 34.6663 118.529 33.485 117.558 32.6017L116.885 33.3416Z" fill="#281F1F"/>
</svg>
