<svg width="444" height="352" viewBox="0 0 444 352" fill="none" xmlns="http://www.w3.org/2000/svg">
<path d="M398.909 192.418L398.909 185L439.418 185L439.418 192.418L428.509 194.527C427.297 194.721 426.376 195.182 425.745 195.909C425.067 196.685 424.655 197.679 424.509 198.891L414.255 283.982C414.061 285.291 414.279 286.358 414.909 287.182C415.491 288.055 416.436 288.588 417.745 288.782L430.909 291.036L430.909 298.6L391.418 298.6L364 213.582L339.855 298.6L300.218 298.6L300.218 291.036L313.527 288.782C314.885 288.539 315.855 287.982 316.436 287.109C316.97 286.285 317.139 285.194 316.945 283.836L303.418 198.818C303.273 197.655 302.861 196.685 302.182 195.909C301.455 195.182 300.533 194.721 299.418 194.527L288.582 192.418L288.582 185L332.8 185L332.8 192.418L319.2 194.818L333.309 284.2L360.291 189.8L371.927 189.8L403.564 284.273L413.891 194.818L398.909 192.418ZM236.364 261.655C241.6 261.655 245.94 259.836 249.382 256.2C252.825 252.612 255.055 246.867 256.073 238.964L219.491 238.964C219.443 239.497 219.394 240.03 219.346 240.564C219.297 241.145 219.273 241.752 219.273 242.382C219.273 248.055 220.752 252.685 223.71 256.273C226.667 259.861 230.885 261.655 236.364 261.655ZM204 203.036C205.94 197.17 209.722 192.394 215.346 188.709C220.97 185.073 227.952 183.255 236.291 183.255C242.497 183.255 247.928 184.297 252.582 186.382C257.188 188.515 261.019 191.449 264.073 195.182C267.079 198.915 269.334 203.376 270.837 208.564C272.34 213.752 273.091 219.4 273.091 225.509C273.091 232.442 272.17 238.673 270.328 244.2C268.485 249.727 265.867 254.382 262.473 258.164C259.079 261.994 254.982 264.903 250.182 266.891C245.382 268.927 240.049 269.945 234.182 269.945C229.673 269.945 225.552 269.315 221.819 268.055C218.085 266.842 214.885 265.049 212.219 262.673C209.552 260.297 207.491 257.315 206.037 253.727C204.534 250.139 203.782 245.994 203.782 241.291C203.782 239.933 203.855 238.285 204 236.345C204.146 234.455 204.34 232.758 204.582 231.255L256.655 231.255C256.655 230.915 256.655 230.552 256.655 230.164C256.655 229.776 256.655 229.388 256.655 229C256.655 222.455 256.025 216.927 254.764 212.418C253.503 207.958 251.782 204.37 249.6 201.655C247.419 198.988 244.825 197.073 241.819 195.909C238.813 194.745 235.564 194.164 232.073 194.164C227.322 194.164 222.934 195.23 218.91 197.364C214.837 199.497 211.613 202.382 209.237 206.018L204 203.036ZM144.622 261.655C149.858 261.655 154.198 259.836 157.64 256.2C161.082 252.612 163.313 246.867 164.331 238.964L127.749 238.964C127.701 239.497 127.652 240.03 127.604 240.564C127.555 241.145 127.531 241.752 127.531 242.382C127.531 248.055 129.01 252.685 131.967 256.273C134.925 259.861 139.143 261.655 144.622 261.655ZM112.258 203.036C114.198 197.17 117.979 192.394 123.604 188.709C129.228 185.073 136.21 183.255 144.549 183.255C150.755 183.255 156.185 184.297 160.84 186.382C165.446 188.515 169.276 191.449 172.331 195.182C175.337 198.915 177.592 203.376 179.095 208.564C180.598 213.752 181.349 219.4 181.349 225.509C181.349 232.442 180.428 238.673 178.586 244.2C176.743 249.727 174.125 254.382 170.731 258.164C167.337 261.994 163.24 264.903 158.44 266.891C153.64 268.927 148.307 269.945 142.44 269.945C137.931 269.945 133.81 269.315 130.076 268.055C126.343 266.842 123.143 265.049 120.476 262.673C117.81 260.297 115.749 257.315 114.295 253.727C112.792 250.139 112.04 245.994 112.04 241.291C112.04 239.933 112.113 238.285 112.258 236.345C112.404 234.455 112.598 232.758 112.84 231.255L164.913 231.255C164.913 230.915 164.913 230.552 164.913 230.164C164.913 229.776 164.913 229.388 164.913 229C164.913 222.455 164.282 216.927 163.022 212.418C161.761 207.958 160.04 204.37 157.858 201.655C155.676 198.988 153.082 197.073 150.076 195.909C147.07 194.745 143.822 194.164 140.331 194.164C135.579 194.164 131.192 195.23 127.167 197.364C123.095 199.497 119.87 202.382 117.495 206.018L112.258 203.036ZM51.3524 192.418L51.3524 185L92.5888 185L92.5888 192.418L83.6433 193.8C82.3827 193.994 81.413 194.479 80.7342 195.255C80.0554 196.03 79.716 197.049 79.716 198.309L79.716 298.964C79.716 300.273 80.0554 301.291 80.7342 302.018C81.413 302.745 82.3827 303.206 83.6433 303.4L94.3342 304.927L94.3342 311.618C90.116 312.83 85.4857 313.8 80.4433 314.527C75.3524 315.255 70.6979 315.667 66.4797 315.764L64.1524 313.509L64.1524 222.527L31.4251 258.236L45.9706 260.564L45.9706 267.618L6.2615 267.618L6.2615 260.564L14.9888 258.673C16.3948 258.382 17.5585 258.042 18.4797 257.655C19.4009 257.315 20.3221 256.685 21.2433 255.764L39.9342 236.345C38.5282 234.503 37.2191 232.636 36.007 230.745C34.7948 228.903 33.51 226.77 32.1524 224.345L17.0251 198.818C16.2009 197.461 15.3524 196.442 14.4797 195.764C13.5585 195.085 12.5645 194.624 11.4979 194.382L2.33422 192.418L2.33422 185L24.3706 185C26.3585 185 28.1766 186.164 29.8251 188.491C31.4251 190.818 33.1948 193.824 35.1342 197.509L43.4251 213.218C44.6373 215.545 45.8251 217.727 46.9888 219.764C48.1039 221.849 49.2191 223.788 50.3342 225.582L64.1524 211.109L64.1524 198.236C64.1524 196.976 63.813 195.958 63.1342 195.182C62.4069 194.455 61.4373 193.994 60.2251 193.8L51.3524 192.418Z" fill="black"/>
<path d="M63.2728 53.4C67.9758 53.4 72.4364 53.2303 76.6546 52.8909C80.8728 52.503 85.2364 52.3091 89.7455 52.3091C108.461 52.3091 122.255 56.9879 131.127 66.3455C140 75.6545 144.436 89.1818 144.436 106.927C144.436 117.012 143.103 125.933 140.436 133.691C137.77 141.4 133.988 147.824 129.091 152.964C124.194 158.103 118.23 161.958 111.2 164.527C104.17 167.097 96.3394 168.285 87.7091 168.091C84.5091 168.042 80.6546 167.848 76.1455 167.509C71.6364 167.17 67.4182 167 63.4909 167H39.9273V159.582L51.6364 157.473C52.8485 157.279 53.7697 156.794 54.4 156.018C55.0303 155.242 55.3455 154.297 55.3455 153.182V67.2909C55.3455 66.3212 55.0546 65.4727 54.4728 64.7455C53.8909 64.0182 53.1152 63.5576 52.1455 63.3636L39.9273 60.9636V53.4H63.2728ZM71.5637 158.564C73.6485 159 76.4121 159.339 79.8546 159.582C83.3455 159.776 86.4485 159.848 89.1637 159.8C101.188 159.461 110.497 155.388 117.091 147.582C123.685 139.727 126.982 127.073 126.982 109.618C126.982 92.7939 123.612 80.4061 116.873 72.4545C110.182 64.4545 99.9758 60.4546 86.2546 60.4546C83.1515 60.4546 80.3152 60.6 77.7455 60.8909C75.2243 61.1818 73.1637 61.3758 71.5637 61.4727V158.564ZM195.121 84.8182V153.618C195.121 154.927 195.46 155.97 196.139 156.745C196.818 157.521 197.787 158.006 199.048 158.2L207.993 159.582V167H166.612V159.582L175.557 158.2C176.818 158.006 177.787 157.521 178.466 156.745C179.193 155.97 179.557 154.952 179.557 153.691V99.5091C179.557 98.2 179.218 97.1576 178.539 96.3818C177.909 95.6061 176.963 95.1212 175.703 94.9273L165.593 93.4727V86.3455C169.763 85.0848 174.297 84.1636 179.193 83.5818C184.09 82.9515 188.624 82.5879 192.793 82.4909L195.121 84.8182ZM196.284 59.9455C196.284 63.0485 195.29 65.5939 193.303 67.5818C191.315 69.5212 188.721 70.4909 185.521 70.4909C182.321 70.4909 179.727 69.5212 177.739 67.5818C175.751 65.5939 174.757 63.0485 174.757 59.9455C174.757 56.8909 175.751 54.3939 177.739 52.4545C179.727 50.5152 182.321 49.5455 185.521 49.5455C188.721 49.5455 191.315 50.5152 193.303 52.4545C195.29 54.3939 196.284 56.8909 196.284 59.9455ZM263.8 90.3455C258.564 90.3455 254.224 92.1636 250.782 95.8C247.339 99.3879 245.109 105.133 244.091 113.036H280.673C280.721 112.503 280.77 111.97 280.818 111.436C280.867 110.855 280.891 110.248 280.891 109.618C280.891 103.945 279.412 99.3152 276.455 95.7273C273.497 92.1394 269.279 90.3455 263.8 90.3455ZM296.164 148.964C294.224 154.83 290.442 159.606 284.818 163.291C279.194 166.927 272.212 168.745 263.873 168.745C257.667 168.745 252.236 167.703 247.582 165.618C242.976 163.485 239.145 160.552 236.091 156.818C233.085 153.085 230.83 148.624 229.327 143.436C227.824 138.248 227.073 132.6 227.073 126.491C227.073 119.558 227.994 113.327 229.836 107.8C231.679 102.273 234.297 97.6182 237.691 93.8364C241.085 90.0061 245.182 87.097 249.982 85.1091C254.782 83.0727 260.115 82.0545 265.982 82.0545C270.491 82.0545 274.612 82.6849 278.345 83.9455C282.079 85.1576 285.279 86.9515 287.945 89.3273C290.612 91.703 292.673 94.6848 294.127 98.2727C295.63 101.861 296.382 106.006 296.382 110.709C296.382 112.067 296.309 113.715 296.164 115.655C296.018 117.545 295.824 119.242 295.582 120.745H243.509C243.509 121.085 243.509 121.448 243.509 121.836C243.509 122.224 243.509 122.612 243.509 123C243.509 129.545 244.139 135.073 245.4 139.582C246.661 144.042 248.382 147.63 250.564 150.345C252.745 153.012 255.339 154.927 258.345 156.091C261.352 157.255 264.6 157.836 268.091 157.836C272.842 157.836 277.23 156.77 281.255 154.636C285.327 152.503 288.552 149.618 290.927 145.982L296.164 148.964ZM327.906 146.418V94.8545L315.324 93.2545V86.3455L324.56 85.1091C325.869 84.9152 326.863 84.4788 327.542 83.8C328.221 83.1212 328.73 82.1758 329.069 80.9636L334.233 59.5818H343.251L343.469 84.3091H370.669V94.2727H343.542V141.255C343.542 147.558 344.609 151.776 346.742 153.909C348.924 156.042 351.857 157.109 355.542 157.109C358.597 157.109 361.409 156.552 363.979 155.436C366.597 154.321 368.851 152.721 370.742 150.636L375.251 154.782C373.069 159.291 369.7 162.733 365.142 165.109C360.633 167.436 355.639 168.6 350.16 168.6C347.203 168.6 344.366 168.261 341.651 167.582C338.936 166.903 336.56 165.739 334.524 164.091C332.536 162.394 330.936 160.115 329.724 157.255C328.512 154.394 327.906 150.782 327.906 146.418Z" fill="black"/>
</svg>
