<svg width="80" height="81" viewBox="0 0 80 81" fill="none" xmlns="http://www.w3.org/2000/svg">
<path d="M40 0C32.0887 0 24.3552 2.37051 17.7772 6.81176C11.1992 11.253 6.07234 17.5655 3.04484 24.951C0.0173356 32.3366 -0.774803 40.4634 0.768605 48.3038C2.31201 56.1443 6.12166 63.3462 11.7158 68.9988C17.3099 74.6514 24.4371 78.5009 32.1964 80.0605C39.9556 81.6201 47.9983 80.8196 55.3073 77.7604C62.6164 74.7013 68.8635 69.5207 73.2588 62.8739C77.654 56.2271 80 48.4126 80 40.4186C80 35.1107 78.9654 29.8549 76.9552 24.951C74.945 20.0472 71.9986 15.5915 68.2843 11.8383C64.5699 8.08512 60.1604 5.1079 55.3073 3.07667C50.4543 1.04545 45.2529 -8.4704e-07 40 0ZM59.7685 30.1674C59.7895 30.6039 59.8001 31.0509 59.8001 31.4981C59.8001 45.1343 49.5393 60.857 30.7558 60.857C25.2138 60.8692 19.7883 59.249 15.1433 56.1944C15.9509 56.2924 16.7635 56.3422 17.5768 56.3434C22.1725 56.3517 26.637 54.7955 30.2501 51.9257C28.1201 51.8852 26.0559 51.1728 24.3464 49.8883C22.6369 48.6037 21.3676 46.8112 20.7162 44.7617C21.3473 44.8902 21.9896 44.9544 22.6335 44.9533C23.5408 44.9531 24.4442 44.8314 25.3199 44.5914C23.01 44.1195 20.9328 42.8547 19.4408 41.0114C17.9487 39.1681 17.1339 36.86 17.1344 34.4787V34.3509C18.5522 35.1562 20.1437 35.5984 21.7697 35.6389C19.606 34.1815 18.0735 31.9455 17.4843 29.3862C16.8952 26.827 17.2937 24.1371 18.5987 21.8643C21.1567 25.0541 24.3514 27.6632 27.9746 29.5212C31.5978 31.3793 35.5679 32.4446 39.626 32.6477C39.4472 31.8767 39.3588 31.0871 39.3627 30.2952C39.3603 28.2267 39.9741 26.2055 41.1242 24.4944C42.2744 22.7833 43.9075 21.4617 45.8112 20.7014C47.715 19.9411 49.801 19.7774 51.7981 20.2317C53.7951 20.6859 55.6106 21.737 57.0084 23.2482C59.2942 22.7967 61.4859 21.9505 63.4872 20.7466C62.726 23.1358 61.131 25.1637 58.9995 26.4524C61.0208 26.2047 62.9946 25.6558 64.8568 24.8236C63.4881 26.8961 61.7651 28.7056 59.7685 30.1674Z" fill="#FF4500"/>
</svg>
